<?xml version="1.0" standalone="no"?>
<!DOCTYPE svg PUBLIC "-//W3C//DTD SVG 1.1//EN" "http://www.w3.org/Graphics/SVG/1.1/DTD/svg11.dtd" >
<svg>
<metadata>
Created by FontForge 20090914 at Fri Oct 28 21:58:43 2016
 By www-data
Copyright c 1992 by CC Font ManipSystems
</metadata>
<defs>
<font id="RockwellBold" horiz-adv-x="1045" >
  <font-face 
    font-family="Rockwell-Bold"
    font-weight="400"
    font-stretch="normal"
    units-per-em="2048"
    panose-1="2 11 5 0 0 0 0 0 0 0"
    ascent="1638"
    descent="-410"
    x-height="1043"
    cap-height="1475"
    bbox="-424 -504.001 2040 1878"
    underline-thickness="50"
    underline-position="-75"
    unicode-range="U+0020-U+203A"
  />
<missing-glyph horiz-adv-x="1536" 
d="M256 0v1280h1024v-1280h-1024zM1248 32v1216h-960v-1216h960z" />
    <glyph glyph-name=".notdef" horiz-adv-x="1536" 
d="M256 0v1280h1024v-1280h-1024zM1248 32v1216h-960v-1216h960z" />
    <glyph glyph-name="space" unicode=" " horiz-adv-x="547" 
 />
    <glyph glyph-name="exclam" unicode="!" horiz-adv-x="408" 
d="M53 0h320v352h-320v-352zM53 1137l80 -615h160l86 629v334h-326v-348z" />
    <glyph glyph-name="quotedbl" unicode="&#x22;" horiz-adv-x="772" 
d="M17 772l36.001 4.00098c80 7.33301 141.5 24.666 184.5 51.999s73.667 69.333 92 126s27.5 134.667 27.5 234v297h-332v-352h143c5.33301 -14.667 8 -29.667 8 -45c0 -41.333 -15.833 -77.333 -47.5 -108s-68.834 -50 -111.501 -58v-150zM416.001 781.001h54
c102 0 174.167 38.333 216.5 115s63.5 170 63.5 280v309h-334v-352h152c-2 -74 -13 -124.167 -33 -150.5s-59.667 -42.5 -119 -48.5v-153z" />
    <glyph glyph-name="dollar" unicode="$" horiz-adv-x="996" 
d="M279 492l-231.995 -0.00292969v-492h232v107c23.333 -32 42.333 -54.167 57 -66.5s38.667 -25.833 72 -40.5v-211h127v174c58.667 2.66699 107 7.33398 145 14.001s70.667 16.167 98 28.5s52.666 29.166 75.999 50.499c46 40.667 81.333 92 106 154
c24 62.667 36 128.667 36 198c0 74.667 -15.167 140.334 -45.5 197.001s-70.333 105.167 -120 145.5s-96.834 72.5 -141.501 96.5c-44 24 -118.667 62.667 -224 116c-52.667 26.667 -90.334 53 -113.001 79s-34 57.667 -34 95c0 40.667 13.167 73.334 39.5 98.001
s62.166 37 107.499 37c119.333 0 189 -76.333 209 -229h228l-1 432h-231v-92c-17.333 24 -34.333 42.333 -51 55s-44.667 28.334 -84 47.001v160h-127v-139c-112.667 -8.66699 -194 -32.667 -244 -72c-48 -33.333 -86 -82 -114 -146s-42 -132.667 -42 -206
c0 -104 31 -192.833 93 -266.5s159 -136.5 291 -188.5c95.333 -40 163.5 -79 204.5 -117s61.5 -82.333 61.5 -133c0 -46.667 -15.833 -86 -47.5 -118s-71.834 -48 -120.501 -48c-66.667 0 -117 22.667 -151 68c-33.333 44.667 -53.333 115.667 -60 213z" />
    <glyph glyph-name="percent" unicode="%" horiz-adv-x="1094" 
d="M266 1514c-79.333 0 -142.668 -35.334 -190.001 -106.001c-48 -70 -72 -164.333 -72 -283c0 -134 22 -236.667 66 -308c43.333 -70.667 106 -106 188 -106c84.667 0 151.334 36.333 200.001 109s73 171.334 73 296.001c0 126 -23 223.833 -69 293.5
s-111.333 104.5 -196 104.5zM126.998 -4.00098l101 -56l254 521l505 1032l-116 56l-246 -519zM270.998 1358c47.333 0 71 -79 71 -237c0 -79.333 -6.66699 -141.333 -20 -186c-13.333 -44 -32 -66 -56 -66c-43.333 0 -65 75 -65 225c0 176 23.333 264 70 264z
M839.998 767.999c-54.667 0 -102.667 -16.834 -144 -50.501s-73 -81.167 -95 -142.5s-33 -132.666 -33 -213.999c0 -129.333 21.667 -227.333 65 -294c44 -66.667 107.667 -100 191 -100c159.333 0 249.333 128.667 270 386c0 133.333 -22.667 235.833 -68 307.5
s-107.333 107.5 -186 107.5zM835.998 614.998c43.333 0 64.999 -83.333 64.999 -250c0 -76 -6.16699 -136 -18.5 -180s-29.166 -66 -50.499 -66c-45.333 0 -68 73.667 -68 221c0 183.333 24 275 72 275z" />
    <glyph glyph-name="ampersand" unicode="&#x26;" horiz-adv-x="1456" 
d="M942 166l123 -166h398v233h-168l-168 154c47.333 65.333 81 115 101 149s42.333 81.333 67 142h168v213h-326c-12 -56.667 -28 -105.334 -48 -146.001s-54 -96.334 -102 -167.001l-226 287c92 62.667 155.5 117.5 190.5 164.5s52.5 99.833 52.5 158.5
c0 50 -9.83301 94.5 -29.5 133.5s-46.5 71.833 -80.5 98.5c-33.333 26 -71.333 45.667 -114 59s-87 20 -133 20c-64 0 -124.5 -12.333 -181.5 -37s-103 -61.5 -138 -110.5s-52.5 -107.5 -52.5 -175.5c0 -90.667 32.667 -181.667 98 -273c-81.333 -50 -147 -95 -197 -135
s-91.167 -89 -123.5 -147s-48.5 -126.333 -48.5 -205c0 -86 21 -163.667 63 -233c42 -68.667 100 -122.5 174 -161.5s157 -58.5 249 -58.5c44 0 86.167 5.5 126.5 16.5s76.833 25.333 109.5 43s60 33.834 82 48.501s66.667 46.334 134 95.001zM795 361
c-34.667 -37.333 -74.3311 -68.001 -118.998 -92.001c-44 -24 -85 -36 -123 -36c-40.667 0 -80.334 12.667 -119.001 38c-38 24.667 -69 57.334 -93 98.001s-36 83 -36 127c0 41.333 13.167 79.333 39.5 114s76.166 78 149.499 130zM635.003 1034c-60 68 -90 129 -90 183
c0 32.667 10.167 57.834 30.5 75.501s45.833 26.5 76.5 26.5c30 0 56.333 -9.33301 79 -28s34 -44.667 34 -78c0 -34.667 -9 -63.834 -27 -87.501s-52.333 -54.167 -103 -91.5z" />
    <glyph glyph-name="quotesingle" unicode="'" horiz-adv-x="361" 
d="M12 776h31c107.333 0 185.333 30.167 234 90.5s73 156.5 73 288.5v334h-338v-360h152c0 -62 -11 -109.333 -33 -142s-61.667 -53 -119 -61v-150z" />
    <glyph glyph-name="parenleft" unicode="(" horiz-adv-x="545" 
d="M553 -119l0.00195312 216.004c-56.667 43.333 -102.334 93.666 -137.001 150.999c-34 57.333 -59 125.666 -75 204.999c-15.333 78.667 -23 172.667 -23 282c0 108.667 7.66699 202 23 280c16 78 41 146.333 75 205s79.667 111.667 137 159v208
c-112 -50.667 -209.333 -118.5 -292 -203.5s-146.167 -181.833 -190.5 -290.5s-66.5 -222.334 -66.5 -341.001c0 -120 21.167 -233.833 63.5 -341.5s104.666 -206.334 186.999 -296.001s181.833 -167.5 298.5 -233.5z" />
    <glyph glyph-name="parenright" unicode=")" horiz-adv-x="545" 
d="M-4 1379c54.667 -46.667 98.999 -99.667 132.999 -159c34 -58.667 59 -127 75 -205s24 -169.667 24 -275c0 -142 -16.667 -268.833 -50 -380.5s-95.333 -199.167 -186 -262.5v-216c88 47.333 166.333 102.666 235 165.999c68.667 62 126.334 130 173.001 204
c47.333 73.333 83 151.833 107 235.5s36 170.834 36 261.501c0 92 -12.167 179.833 -36.5 263.5s-60.5 162 -108.5 235s-106 138.5 -174 196.5s-144 106 -228 144v-208z" />
    <glyph glyph-name="asterisk" unicode="*" horiz-adv-x="957" 
d="M-8 1133l223 -77.999c48 14.667 89 23 123 25c16 0 35.333 -2.33301 58 -7c-12 -29.333 -28.167 -50.666 -48.5 -63.999s-56.166 -26 -107.499 -38l-137 -190l188 -146l145 189c0 77.333 13.667 135.333 41 174c12 -14 21.167 -30 27.5 -48s11.166 -36.667 14.499 -56
l12 -70l135 -189l193 146l-133 174c-41.333 13.333 -74.166 28 -98.499 44s-46.833 40.667 -67.5 74c34 6 58.333 9 73 9c36.667 0 73 -9 109 -27l225 78l-74 221l-227 -94c-3.33301 -2 -6.33301 -4.66699 -9 -8s-4.33398 -5 -5.00098 -5
c-27.333 -25.333 -46.333 -41 -57 -47s-28 -10 -52 -12c0 63.333 20.667 111.666 62 144.999l-1 246h-247v-246c16.667 -13.333 29.167 -30.333 37.5 -51s15.5 -53.334 21.5 -98.001c-28 8.66699 -48.833 18.167 -62.5 28.5s-34.5 31.5 -62.5 63.5l-229 78z" />
    <glyph glyph-name="comma" unicode="," horiz-adv-x="361" 
d="M12 -353c79.333 0 143.667 12.333 193 37s86 62.667 110 114c23.333 52 35 119.333 35 202v357h-338v-357h152c-2 -67.333 -14.167 -115.833 -36.5 -145.5s-60.833 -47.5 -115.5 -53.5v-154z" />
    <glyph glyph-name="hyphen" unicode="-" horiz-adv-x="588" 
d="M13 412h555v278h-555v-278z" />
    <glyph glyph-name="period" unicode="." horiz-adv-x="361" 
d="M12 0h338v357h-338v-357z" />
    <glyph glyph-name="slash" unicode="/" horiz-adv-x="996" 
d="M-4 -88h262l277 610l465 1039h-258l-277 -610z" />
    <glyph glyph-name="zero" unicode="0" horiz-adv-x="996" 
d="M518 1506c-80 0 -151.666 -17.666 -214.999 -52.999c-62.667 -35.333 -116.667 -87.333 -162 -156s-79.333 -152.334 -102 -251.001c-23.333 -98 -35 -209 -35 -333c0 -116 11 -220.167 33 -312.5s54 -170.166 96 -233.499c42.667 -64 94.667 -112.667 156 -146
c62 -33.333 131.667 -50 209 -50c78.667 0 148.667 16.667 210 50s113 82.333 155 147s73.833 144.667 95.5 240s32.5 204.333 32.5 327c0 163.333 -18 302.666 -54 417.999c-36.667 116 -90.334 203.667 -161.001 263c-70.667 60 -156.667 90 -258 90zM502.001 1256
c40 0 71.499 -16.001 94.499 -48.001s39.667 -83.167 50 -153.5s15.5 -165.833 15.5 -286.5c0 -143.333 -4.5 -254.333 -13.5 -333s-24 -134.667 -45 -168s-50.833 -50 -89.5 -50c-43.333 0 -77.666 18.333 -102.999 55c-24.667 36.667 -42.334 96.167 -53.001 178.5
s-16 196.5 -16 342.5c0 108.667 5.33301 196.834 16 264.501s27.834 117.667 51.501 150s54.5 48.5 92.5 48.5z" />
    <glyph glyph-name="one" unicode="1" horiz-adv-x="721" 
d="M-4 1110l0.000976562 236c95.333 0 165 11.333 209 34c43.333 23.333 87.666 71.333 132.999 144h201v-1290h190v-234h-725v234h205v876h-213z" />
    <glyph glyph-name="two" unicode="2" horiz-adv-x="957" 
d="M-8 0c9.33301 99.333 22.166 183.496 38.499 252.496s40.833 132.5 73.5 190.5c32 58.667 76.333 119 133 181c56.667 62.667 130.667 134.667 222 216c56.667 53.333 95.667 97.333 117 132c22 34.667 33 75.334 33 122.001c0 37.333 -8.5 68.333 -25.5 93
s-37.5 42.834 -61.5 54.501s-46.333 17.5 -67 17.5c-33.333 0 -62.166 -12.833 -86.499 -38.5s-39.5 -60.167 -45.5 -103.5c-3.33301 -28.667 -5 -85.667 -5 -171l-297 17c6.66699 93.333 18.167 169.333 34.5 228s40.833 109 73.5 151c42.667 54.667 95 95.667 157 123
c62.667 27.333 128.667 41 198 41c77.333 0 151.333 -16.833 222 -50.5s127.667 -82.167 171 -145.5c44 -64 66 -137.333 66 -220c0 -91.333 -24 -168.666 -72 -231.999c-22 -28.667 -52.167 -60.5 -90.5 -95.5l-123.5 -108l-136.5 -114.5
c-47 -39.333 -80.5 -69.666 -100.5 -90.999c-52.667 -54.667 -88 -123.667 -106 -207h397v199h244v-441h-963z" />
    <glyph glyph-name="three" unicode="3" horiz-adv-x="996" 
d="M0 441l265.997 43.0029c10 -58.667 20.167 -105.334 30.5 -140.001s29 -64.5 56 -89.5s64.5 -37.5 112.5 -37.5c58 0 102.5 20.667 133.5 62s46.5 91 46.5 149c0 38 -7.33301 73.667 -22 107c-14 34 -35 61.333 -63 82c-19.333 14.667 -36.166 23.5 -50.499 26.5
s-44.166 4.5 -89.499 4.5h-43v250c64 0.666992 107.333 5.16699 130 13.5s43.334 22.833 62.001 43.5c34 36.667 51 85.667 51 147c0 104.667 -49 157 -147 157c-40.667 0 -68.667 -6 -84 -18s-28 -29.667 -38 -53c-10.667 -28 -21.667 -72.333 -33 -133l-277 22
c3.33301 68.667 15.666 129.834 36.999 183.501s51.333 98.667 90 135s85.334 64.166 140.001 83.499c54.667 18 116.667 27 186 27c88 0 165.5 -15.833 232.5 -47.5s118.333 -76.334 154 -134.001s53.5 -124.167 53.5 -199.5c0 -81.333 -17.667 -149.5 -53 -204.5
s-91.666 -101.5 -168.999 -139.5c95.333 -39.333 163.666 -85.666 204.999 -138.999c41.333 -52.667 62 -121.334 62 -206.001c0 -92.667 -21 -175 -63 -247s-101.5 -127.833 -178.5 -167.5s-165.167 -59.5 -264.5 -59.5c-94 0 -176.167 19.167 -246.5 57.5
s-125 93.666 -164 165.999s-59.833 157.5 -62.5 255.5z" />
    <glyph glyph-name="four" unicode="4" horiz-adv-x="996" 
d="M-16 635l74 -231h510v-170h-184l-1 -234h617v234h-129v170h129v215h-133v899h-271zM220 619l343 536l5 -536h-348z" />
    <glyph glyph-name="five" unicode="5" horiz-adv-x="996" 
d="M-4 396l266 35.9971c14 -74.667 36.667 -128.5 68 -161.5s77.666 -49.5 138.999 -49.5c61.333 2.66699 106.333 24.334 135 65.001s43 102.334 43 185.001c0 48.667 -7.66699 92 -23 130s-36.5 67.167 -63.5 87.5s-57.5 30.5 -91.5 30.5
c-37.333 0 -69.333 -9.33301 -96 -28s-54 -51 -82 -97l-221 113l41 768h807v-361h-211v117h-385l-17 -366c36.667 36.667 73 63.5 109 80.5s82.333 25.5 139 25.5c83.333 0 157.333 -19.667 222 -59s114.834 -95.166 150.501 -167.499s53.5 -155.166 53.5 -248.499
c0 -106.667 -20.833 -200 -62.5 -280s-101 -141.667 -178 -185s-166.833 -65 -269.5 -65c-81.333 0 -155.333 15 -222 45c-66 30 -119.667 72 -161 126c-41.333 57.333 -71.333 143.666 -90 258.999z" />
    <glyph glyph-name="six" unicode="6" horiz-adv-x="996" 
d="M334 848c57.333 42.667 104.668 72 142.001 88c38 15.333 80.667 23 128 23c76.667 0 144 -19.167 202 -57.5s102.667 -92.666 134 -162.999s47 -152.5 47 -246.5c0 -101.333 -19 -191.333 -57 -270s-91.833 -139.5 -161.5 -182.5s-148.834 -64.5 -237.501 -64.5
c-82 0 -155.333 17.333 -220 52s-119.167 85.167 -163.5 151.5s-78 147.166 -101 242.499s-34.5 203 -34.5 323c0 127.333 17.333 250 52 368s92 216.167 172 294.5s183 117.5 309 117.5c83.333 0 157.5 -16.333 222.5 -49s116.5 -79 154.5 -139s59.667 -129 65 -207
l-288 -47c-18.667 70 -40.667 119.833 -66 149.5s-59.333 44.5 -102 44.5c-65.333 0 -114 -34.667 -146 -104s-49 -177.333 -51 -324zM338.002 635c0 -137.333 15.002 -239.167 45.002 -305.5s76.333 -99.5 139 -99.5c54.667 0 96.667 22.167 126 66.5s44 98.5 44 162.5
c0 67.333 -16.167 126.333 -48.5 177s-76.833 76 -133.5 76c-34.667 0 -63.834 -6.16699 -87.501 -18.5s-51.834 -31.833 -84.501 -58.5z" />
    <glyph glyph-name="seven" unicode="7" horiz-adv-x="905" 
d="M4 1006v469h906v-186c-68 -102.667 -127.833 -212.334 -179.5 -329.001s-91.834 -237 -120.501 -361c-28 -124 -42 -245.667 -42 -365h188v-234h-723v234h199c28.667 210.667 71.334 394.667 128.001 552c67.333 186.667 154.333 336.334 261 449.001h-398v-229h-219z
" />
    <glyph glyph-name="eight" unicode="8" horiz-adv-x="996" 
d="M219 776c-51.333 -30.667 -93.3311 -64.499 -125.998 -101.499s-56.334 -78.5 -71.001 -124.5s-22 -99 -22 -159c0 -86.667 20.5 -161.5 61.5 -224.5s99.833 -111.167 176.5 -144.5c77.333 -34 168 -51 272 -51c166 0 285 39 357 117c88.667 77.333 133 177 133 299
c0 52 -8.66699 103 -26 153c-16.667 50 -41.334 95.667 -74.001 137c-33.333 42 -71.666 75 -114.999 99c56 28 99.667 72 131 132s47 129.333 47 208c0 84.667 -21.167 157 -63.5 217s-97.833 105.167 -166.5 135.5s-142.334 45.5 -221.001 45.5
c-80 0 -156.333 -15.833 -229 -47.5s-131.167 -78.334 -175.5 -140.001s-66.5 -135.167 -66.5 -220.5c0 -73.333 15.667 -138.5 47 -195.5s75 -101.833 131 -134.5zM498.002 658.001c63.333 0 112.333 -22.832 147 -68.499s52 -99.5 52 -161.5
c0 -60.667 -17.333 -113.334 -52 -158.001s-83.667 -67 -147 -67c-61.333 0 -108.833 22.5 -142.5 67.5s-50.5 98.833 -50.5 161.5c0 60 16.833 112.667 50.5 158s81.167 68 142.5 68zM498.002 1284c52 0 92.333 -19.166 121 -57.499s43 -84.5 43 -138.5
c0 -54.667 -14.5 -101.334 -43.5 -140.001s-70.5 -58 -124.5 -58c-49.333 0 -87.333 19 -114 57s-40 83.667 -40 137c0 52.667 14 99.167 42 139.5s66.667 60.5 116 60.5z" />
    <glyph glyph-name="nine" unicode="9" horiz-adv-x="996" 
d="M13 369l280 39.002c21.333 -72 43.333 -121 66 -147c23.333 -26.667 57.333 -40 102 -40c44 0 79.5 14 106.5 42s47.5 72 61.5 132c13.333 60.667 22.666 144 27.999 250c-54.667 -43.333 -101.167 -73.333 -139.5 -90s-80.5 -25 -126.5 -25c-76 0 -143 19.5 -201 58.5
s-102.833 93.667 -134.5 164s-47.5 152.166 -47.5 245.499c0 102.667 19 193.667 57 273c37.333 80 91 141.667 161 185c69.333 44 149 66 239 66c108.667 0 201.334 -30.667 278.001 -92c77.333 -61.333 136 -150.333 176 -267s60 -256.334 60 -419.001
c0 -119.333 -11.833 -226.833 -35.5 -322.5s-58.834 -176.834 -105.501 -243.501c-46 -67.333 -102 -118.666 -168 -153.999s-141 -53 -225 -53c-60.667 0 -116 8.66699 -166 26c-50 18.667 -93.667 45 -131 79c-38 34.667 -68.167 76 -90.5 124
s-37.166 104.333 -44.499 169zM653 860.002c0 94 -6.5 170.666 -19.5 229.999s-33.833 103.333 -62.5 132c-28 27.333 -64.667 41 -110 41c-48 0 -85.333 -19.333 -112 -58c-26.667 -40 -40 -95.333 -40 -166c0 -79.333 15.667 -142.166 47 -188.499s73.333 -69.5 126 -69.5
c38 0 69.5 6.66699 94.5 20s50.5 33 76.5 59z" />
    <glyph glyph-name="colon" unicode=":" horiz-adv-x="408" 
d="M57 0h334v356h-334v-356zM57 703h334v354h-334v-354z" />
    <glyph glyph-name="semicolon" unicode=";" horiz-adv-x="408" 
d="M57 -357l37 0.000976562c103.333 0 178.666 31.833 225.999 95.5s71 164.5 71 302.5v315h-334v-356h154c-0.666992 -46.667 -5 -82.834 -13 -108.501s-22.667 -45.5 -44 -59.5s-53.666 -25.667 -96.999 -35v-154zM57 703.001h334v352h-334v-352z" />
    <glyph glyph-name="less" unicode="&#x3c;" 
d="M-17 549l351 -506h301l-349 510l353 490h-297zM403 535l357 -492h295l-348 506l354 494h-293z" />
    <glyph glyph-name="greater" unicode="&#x3e;" 
d="M-17 43h275l385 506l-352 494h-296l351 -508zM407 43h279l375 492l-350 508h-296l353 -512z" />
    <glyph glyph-name="question" unicode="?" horiz-adv-x="996" 
d="M-4 1073l305.001 0.00292969c2.66699 72 16.667 129.333 42 172s71.666 64 138.999 64c62 0 108.833 -17.167 140.5 -51.5s47.5 -83.5 47.5 -147.5c0 -67.333 -18 -116.333 -54 -147c-36 -32 -82.333 -48 -139 -48c-40.667 0 -82 7.66699 -124 23l8 -411h166l26 156
c76.667 6 135.834 14.167 177.501 24.5s79.5 25.166 113.5 44.499c101.333 69.333 152 180.666 152 333.999c0 90 -20.333 168.667 -61 236s-98.5 119.166 -173.5 155.499s-162.833 54.5 -263.5 54.5c-96 0 -182.333 -17.833 -259 -53.5s-136.334 -85.167 -179.001 -148.5
s-64 -135.333 -64 -216v-41zM271.001 0.00292969h338v357h-338v-357z" />
    <glyph glyph-name="A" unicode="A" horiz-adv-x="1592" 
d="M13 0h673v237h-168l74 267h424l61 -267h-172v-237h674v237h-135l-311 994h176v244h-1008v-244h181l-330 -994h-139v-237zM652 707l155 569l150 -569h-305z" />
    <glyph glyph-name="B" unicode="B" horiz-adv-x="1270" 
d="M-4 0l856.001 -0.000976562c57.333 0 110.333 10 159 30s91 48.667 127 86c36.667 36.667 64.667 80.334 84 131.001c20 50.667 30 105.667 30 165c0 92 -19.667 166.667 -59 224c-40 58 -105.667 106.333 -197 145c64 20.667 114 58.667 150 114s54 120.333 54 195
c0 77.333 -16 145 -48 203s-77.833 102.833 -137.5 134.5s-128.834 47.5 -207.501 47.5h-811v-244h164v-993h-164v-238zM531.001 232.999v408h155c55.333 0 99 -21 131 -63s48 -90.667 48 -146c0 -53.333 -15.333 -99.833 -46 -139.5s-73.667 -59.5 -129 -59.5h-159z
M531.001 879.999v355.001h121c53.333 0 95.333 -17.667 126 -53s46 -76.333 46 -123c0 -48.667 -15.333 -90.334 -46 -125.001c-30 -36 -72 -54 -126 -54h-121z" />
    <glyph glyph-name="C" unicode="C" horiz-adv-x="1456" 
d="M1463 492c-20.667 -82 -51.668 -155.666 -93.001 -220.999s-91.666 -120.666 -150.999 -165.999c-58.667 -44.667 -125.667 -78.667 -201 -102c-74.667 -24 -155.334 -36 -242.001 -36c-112 0 -215 18.333 -309 55c-93.333 36 -173.833 88.667 -241.5 158
s-119.334 151.666 -155.001 246.999s-53.5 201 -53.5 317c0 115.333 18 221 54 317c35.333 96.667 86.333 179.667 153 249s146.334 122.666 239.001 159.999c92.667 36 194.334 54 305.001 54c62 0 116.333 -5 163 -15c34.667 -7.33301 66.667 -18 96 -32
s55.666 -29.667 78.999 -47s46.333 -37.333 69 -60v116l228 -1v-518h-244c-68 197.333 -189.333 296 -364 296c-78.667 0 -147 -21.5 -205 -64.5s-102.167 -105.167 -132.5 -186.5s-45.5 -176.333 -45.5 -285c0 -76 8.83301 -144.5 26.5 -205.5s43.334 -112.667 77.001 -155
s75.167 -74.333 124.5 -96s105 -32.5 167 -32.5c96.667 0 175.667 30.667 237 92c61.333 62 109.333 161 144 297z" />
    <glyph glyph-name="D" unicode="D" horiz-adv-x="1456" 
d="M-13 0l0.00195312 238.001h164v993h-164v244h708c194.667 0 348 -36.333 460 -109c61.333 -38.667 114.333 -90.5 159 -155.5s78.834 -139 102.501 -222s35.5 -171.5 35.5 -265.5c0 -110.667 -15.333 -210.834 -46 -300.501s-75.334 -166 -134.001 -229
s-129.834 -111 -213.501 -144s-177.834 -49.5 -282.501 -49.5h-789zM522.002 230.001l144.002 0.000976562c95.333 0 173.666 20.333 234.999 61c61.333 41.333 105.333 102.666 132 183.999c21.333 64.667 32 142 32 232c0 56.667 -5 112.334 -15 167.001
c-10.667 55.333 -25.167 104.833 -43.5 148.5s-39.833 79.167 -64.5 106.5c-42 40 -91 69 -147 87c-34.667 11.333 -70.834 18.666 -108.501 21.999s-92.5 5 -164.5 5v-1013z" />
    <glyph glyph-name="E" unicode="E" horiz-adv-x="1227" 
d="M8 0v238h160v993h-160v244h1205v-473h-267v233h-407v-366h342v-238h-342v-397h407v237h267v-471h-1205z" />
    <glyph glyph-name="F" unicode="F" horiz-adv-x="1227" 
d="M8 0v238h160v993h-160v244h1211v-461h-264v217h-416v-362h309v-238h-309v-393h182v-238h-713z" />
    <glyph glyph-name="G" unicode="G" horiz-adv-x="1592" 
d="M1571 740c0 -148 -17.998 -265 -53.998 -351c-36 -89.333 -88 -165.666 -156 -228.999s-149.667 -112 -245 -146s-201 -51 -317 -51c-151.333 0 -285.833 31.333 -403.5 94s-209 151 -274 265s-97.5 244.333 -97.5 391c0 122 18.167 232.667 54.5 332
s88.833 184.666 157.5 255.999c68 72 149.833 126.833 245.5 164.5s201.5 56.5 317.5 56.5c97.333 0 181 -12 251 -36c70.667 -24.667 131 -63.334 181 -116.001v116l232 -1v-512h-254c-33.333 84 -77.333 149 -132 195c-68 58 -152.333 87 -253 87
c-88 0 -163.333 -23.667 -226 -71s-109.834 -109.666 -141.501 -186.999s-47.5 -160 -47.5 -248c0 -66 9.33301 -130.667 28 -194c18.667 -62 46.167 -118 82.5 -168s81.166 -89 134.499 -117c52.667 -29.333 113.334 -44 182.001 -44c86 0 160.167 25.833 222.5 77.5
s100.166 117.167 113.499 196.5h-254v240h653z" />
    <glyph glyph-name="H" unicode="H" horiz-adv-x="1456" 
d="M-4 0h662v237h-131v429h403v-429h-137v-237h670v237h-166v994h166v244h-668v-244h135v-333h-403v333h135v244h-666v-244h160v-994h-160v-237z" />
    <glyph glyph-name="I" unicode="I" horiz-adv-x="682" 
d="M-4 0h694v238h-163v993h163v244h-694v-244h160v-993h-160v-238z" />
    <glyph glyph-name="J" unicode="J" horiz-adv-x="721" 
d="M-86 -441v279c36.667 -7.33301 69.667 -11 99 -11c39.333 0 72.666 8.66699 99.999 26c26.667 18 45.834 48 57.501 90s17.5 100.667 17.5 176v1112h-184v244h717v-243h-168v-1211c0 -145.333 -26.667 -251.333 -80 -318c-87.333 -110.667 -214.333 -166 -381 -166
c-56.667 0 -116 7.33301 -178 22z" />
    <glyph glyph-name="K" unicode="K" horiz-adv-x="1542" 
d="M8 0h687v238h-156v993h156v244h-687v-244h160v-993h-160v-238zM559 768l416 -530h-160v-238h723v238h-147l-461 594l395 399h168v244h-645v-244h156z" />
    <glyph glyph-name="L" unicode="L" horiz-adv-x="1227" 
d="M8 0v238h160v993h-160v244h699v-244h-168v-997h432v456h242v-690h-1205z" />
    <glyph glyph-name="M" unicode="M" horiz-adv-x="1999" 
d="M-8 0v238h160v993h-160v244h647l336 -1000l358 1000h678v-244h-163v-993h163v-238h-698v238h160v987l-457 -1225h-158l-458 1247v-1009h153v-238h-561z" />
    <glyph glyph-name="N" unicode="N" horiz-adv-x="1501" 
d="M4 0v238h160v993h-160v244h572l518 -987v743h-156v244h568v-244h-164v-1231h-330l-600 1141v-903h156v-238h-564z" />
    <glyph glyph-name="O" unicode="O" horiz-adv-x="1592" 
d="M795 1518c-114 0 -218.83 -19.001 -314.497 -57.001s-178.167 -92.333 -247.5 -163c-69.333 -70 -122.833 -153.667 -160.5 -251s-56.5 -204 -56.5 -320c0 -114 18.333 -218.333 55 -313c36.667 -94 88.667 -175 156 -243c68 -68 149.5 -120.333 244.5 -157
s199.5 -55 313.5 -55c117.333 0 224.333 18.333 321 55c97.333 36 180.666 88.5 249.999 157.5s122.5 151.833 159.5 248.5s55.5 203.334 55.5 320.001c0 114.667 -18.333 220 -55 316s-89.334 178.333 -158.001 247s-150.834 121.667 -246.501 159s-201.167 56 -316.5 56z
M799.003 1252c57.333 0 109.498 -12.334 156.498 -37.001s87.167 -59.667 120.5 -105s59 -99.666 77 -162.999s27 -134 27 -212c0 -79.333 -8.33301 -151 -25 -215c-17.333 -63.333 -42.166 -117.333 -74.499 -162s-71.666 -78.667 -117.999 -102s-99.5 -35 -159.5 -35
c-83.333 0 -155.166 24.667 -215.499 74s-105.833 114 -136.5 194s-46 164.333 -46 253c0 88 15 171 45 249c30.667 78 75.667 141 135 189s130.666 72 213.999 72z" />
    <glyph glyph-name="P" unicode="P" horiz-adv-x="1270" 
d="M0 0h711v237h-176v298h229c91.333 0 175.333 21 252 63s137.5 100.333 182.5 175s67.5 157.667 67.5 249c0 70 -11.333 132.667 -34 188c-22 56 -54 103.667 -96 143s-92.667 69.5 -152 90.5s-124.333 31.5 -195 31.5h-789v-244h164v-994h-164v-237zM535 780
l0.000976562 463h139c43.333 0 80.666 -9.33301 111.999 -28s55.666 -45.167 72.999 -79.5s26 -74.833 26 -121.5c0 -49.333 -8.83301 -91.5 -26.5 -126.5s-43.667 -61.667 -78 -80s-75.166 -27.5 -122.499 -27.5h-123z" />
    <glyph glyph-name="Q" unicode="Q" horiz-adv-x="1592" 
d="M555 -21c-119.333 42 -219.001 97.667 -299.001 167c-79.333 68.667 -138.333 151.667 -177 249s-58 209.333 -58 336c0 114.667 19.333 220.334 58 317.001c38 97.333 92.333 181 163 251s154.834 124 252.501 162s204.5 57 320.5 57c112 0 214.333 -18.333 307 -55
c92.667 -38 172.334 -91.5 239.001 -160.5s117.667 -151.167 153 -246.5c35.333 -94.667 53 -200 53 -316c0 -60 -5.16699 -118.667 -15.5 -176s-25.5 -111.666 -45.5 -162.999c-20.667 -50.667 -45.667 -97.667 -75 -141c-28.667 -43.333 -62.667 -82.666 -102 -117.999
c-42.667 -36.667 -93.5 -68.334 -152.5 -95.001s-128.833 -49.334 -209.5 -68.001c88 -53.333 185 -80 291 -80c44.667 0 79 1.33301 103 4l-95 -235c-29.333 -2.66699 -51.333 -4 -66 -4c-40.667 0 -80 4.66699 -118 14c-56 13.333 -116.333 38.666 -181 75.999
c-52.667 29.333 -91 48 -115 56s-50.667 12 -80 12c-38.667 0 -71.667 -6.33301 -99 -19c-26.667 -12.667 -71.334 -42.667 -134.001 -90l-122 150c77.333 74 145.333 112.667 204 116zM794.999 1251c-59.333 0 -112.166 -11.6689 -158.499 -35.002s-85.833 -57 -118.5 -101
s-57.834 -98.167 -75.501 -162.5s-26.5 -135.166 -26.5 -212.499c0 -102 15.333 -192 46 -270s75 -138.333 133 -181c57.333 -42 124 -63 200 -63c60 0 113.833 11 161.5 33s88.167 54.333 121.5 97s59 94.667 77 156c16.667 61.333 25 130.333 25 207
c0 106.667 -16 200.334 -48 281.001c-31.333 80.667 -76.333 142.667 -135 186c-58 43.333 -125.333 65 -202 65z" />
    <glyph glyph-name="R" unicode="R" horiz-adv-x="1403" 
d="M-4 0l-0.000976562 238.002h160v993h-160v244h875c58.667 0 112 -9.5 160 -28.5s89.333 -46.5 124 -82.5s61.334 -78.667 80.001 -128c18 -48.667 27 -103.334 27 -164.001c0 -66 -11 -125.5 -33 -178.5s-53 -96.333 -93 -130s-85.333 -53.834 -136 -60.501l247 -465h164
v-238h-420l-317 635h-147v-397h163v-238h-694zM526.999 881.002l155 -0.000976562c64 0 112.833 14.833 146.5 44.5s50.5 72.834 50.5 129.501c0 52 -15.333 95 -46 129c-30 34 -68.667 51 -116 51h-190v-354z" />
    <glyph glyph-name="S" unicode="S" horiz-adv-x="996" 
d="M279 492c0 -89.333 17.834 -158.166 53.501 -206.499s86.834 -72.5 153.501 -72.5c46.667 0 86.334 16.667 119.001 50s49 72.666 49 117.999s-16.333 85 -49 119c-16 17.333 -41.333 36 -76 56s-74.334 40.833 -119.001 62.5l-129.5 65
c-41.667 21.667 -75.834 41.5 -102.501 59.5c-62 44 -106.5 93 -133.5 147s-40.5 119.333 -40.5 196c0 80 16.833 152 50.5 216s79.834 114 138.501 150c59.333 36 125.333 54 198 54c62 0 117.5 -11.167 166.5 -33.5s86.167 -54.833 111.5 -97.5v100h228v-433h-228
c-8.66699 74.667 -31.167 131.667 -67.5 171s-83.833 59 -142.5 59c-42.667 0 -76.834 -13 -102.501 -39s-38.5 -59.333 -38.5 -100c0 -39.333 13.333 -73.333 40 -102s72 -57 136 -85c108 -48 192.667 -90.167 254 -126.5s109.666 -73.833 144.999 -112.5
s60.5 -81.5 75.5 -128.5s22.5 -103.833 22.5 -170.5c0 -67.333 -9.66699 -128.333 -29 -183s-47.5 -101.667 -84.5 -141s-81.333 -69.333 -133 -90s-109.167 -31 -172.5 -31c-130 0 -227.667 48 -293 144v-107h-232v492h232z" />
    <glyph glyph-name="T" unicode="T" horiz-adv-x="1270" 
d="M8 885v590h1254v-586h-246v346h-197v-997h197v-238h-776v238h212v997h-212v-350h-232z" />
    <glyph glyph-name="U" unicode="U" horiz-adv-x="1364" 
d="M8 1231l0.000976562 243.999h662v-244h-131v-756c0 -66 6.33301 -117.667 19 -155s34.334 -63.833 65.001 -79.5s73 -23.5 127 -23.5c51.333 0 92 7.83301 122 23.5s51.167 42.167 63.5 79.5s18.5 89 18.5 155v756h-130v244h536v-243l-168 -1v-760
c0 -86 -5.33301 -155.667 -16 -209s-28.334 -97.666 -53.001 -132.999c-28 -36.667 -63.667 -68.5 -107 -95.5s-91.5 -47.333 -144.5 -61s-109.167 -20.5 -168.5 -20.5c-104.667 0 -199.334 18.667 -284.001 56s-145.667 87 -183 149c-42.667 74 -64 176.667 -64 308v766
h-164z" />
    <glyph glyph-name="V" unicode="V" horiz-adv-x="1403" 
d="M0 1231v244h647v-244h-153l219 -840l221 840h-149v244h622v-243h-141l-414 -1232h-307l-408 1231h-137z" />
    <glyph glyph-name="W" unicode="W" horiz-adv-x="2048" 
d="M12 1231v244h616v-244h-135l193 -819l223 819h-115l1 244h530v-244h-116l194 -795l232 795h-138v244h543v-243h-131l-383 -1232h-279l-210 832l-230 -832h-276l-382 1231h-137z" />
    <glyph glyph-name="X" unicode="X" horiz-adv-x="1403" 
d="M-4 0h600v238h-119l193 284l197 -284h-121v-238h665v238h-125l-376 510l356 483h145v244h-608v-244h127l-180 -254l-174 254h119v244h-699v-244h150l360 -475l-379 -518h-131v-238z" />
    <glyph glyph-name="Y" unicode="Y" horiz-adv-x="1364" 
d="M-4 1231h127l363 -657v-336h-185v-238h746v238h-185v336l365 657h145v244h-565v-244h119l-209 -375l-182 375h108v244h-647v-244z" />
    <glyph glyph-name="Z" unicode="Z" horiz-adv-x="1133" 
d="M4 0v234l695 1009h-406v-276h-236v508h1066v-211l-707 -1026h469v289h238v-527h-1119z" />
    <glyph glyph-name="bracketleft" unicode="[" horiz-adv-x="545" 
d="M53 -88h500v234h-215v145v1034h215v236h-500v-610v-1039z" />
    <glyph glyph-name="bracketright" unicode="]" horiz-adv-x="545" 
d="M-4 1325h213v-141v-1038h-213v-234h498v610v1039h-498v-236z" />
    <glyph glyph-name="underscore" unicode="_" horiz-adv-x="858" 
d="M-8 -266v-50h883v50h-883z" />
    <glyph glyph-name="grave" unicode="`" horiz-adv-x="223" 
d="M-305 1506l305 -338h197l-205 338h-297z" />
    <glyph glyph-name="a" unicode="a" horiz-adv-x="1094" 
d="M647 101c-78.667 -74 -176.001 -111 -292.001 -111c-60 0 -115.833 12 -167.5 36s-93 59.833 -124 107.5s-46.5 105.5 -46.5 173.5c0 66.667 16 126 48 178s76.833 92.333 134.5 121s123.167 43 196.5 43c39.333 0 74.333 -3.16699 105 -9.5s79.334 -21.5 146.001 -45.5
c0 66.667 -3.33301 112.5 -10 137.5s-21.334 47.833 -44.001 68.5c-36 33.333 -79.333 50 -130 50c-76 0 -137.333 -32.667 -184 -98l-246 49c32.667 63.333 69.667 114 111 152s90.833 65.5 148.5 82.5s127.5 25.5 209.5 25.5c144.667 0 254.834 -29.167 330.501 -87.5
s113.5 -143.5 113.5 -255.5v-484h136v-234h-435v101zM642.999 295v92c-54 34 -91.5 54.833 -112.5 62.5s-44.167 11.5 -69.5 11.5c-41.333 0 -74.333 -14.667 -99 -44c-24 -29.333 -36 -63 -36 -101c0 -33.333 10.333 -62 31 -86c20 -23.333 49.333 -35 88 -35
c63.333 0 129.333 33.333 198 100z" />
    <glyph glyph-name="b" unicode="b" horiz-adv-x="1180" 
d="M8 0h452.998v127c41.333 -56.667 81.333 -95.5 120 -116.5s89.334 -31.5 152.001 -31.5c83.333 0 157.333 22.667 222 68c64 44 113.333 106.167 148 186.5s52 172.5 52 276.5c0 77.333 -9.83301 149.166 -29.5 215.499s-47.667 123.833 -84 172.5
s-79.666 86.334 -129.999 113.001s-105.5 40 -165.5 40c-56 0 -106 -12.333 -150 -37c-44 -24 -89 -63.667 -135 -119v580h-453v-240h138v-1001h-138v-234zM653.998 793c38.667 0 72.666 -12.002 101.999 -36.002c30 -23.333 52.833 -56.666 68.5 -99.999
s23.5 -93 23.5 -149c0 -87.333 -17 -155.666 -51 -204.999c-34 -48.667 -81.667 -73 -143 -73c-42.667 0 -79.167 13 -109.5 39s-53.5 60.333 -69.5 103c-15.333 42.667 -23 88 -23 136c0 49.333 7.66699 96 23 140c16 43.333 39 78.333 69 105
c30.667 26.667 67.334 40 110.001 40z" />
    <glyph glyph-name="c" unicode="c" 
d="M1047 324l-251.996 112c-30.667 -67.333 -63.334 -115.166 -98.001 -143.499s-79.334 -42.5 -134.001 -42.5c-69.333 0 -123.333 25.833 -162 77.5s-58 113.167 -58 184.5c0 48.667 9 94.667 27 138c18 44 45 79.333 81 106c36 27.333 79 41 129 41
c56.667 0 103.334 -14.167 140.001 -42.5s67 -72.166 91 -131.499h218l-1 432h-221v-84c-50 36 -95.333 60.667 -136 74s-90.334 20 -149.001 20c-96 0 -183 -22.833 -261 -68.5s-138.833 -108.834 -182.5 -189.501s-65.5 -171.334 -65.5 -272.001
c0 -106 23.167 -201 69.5 -285s111 -149.5 194 -196.5s177.167 -70.5 282.5 -70.5c81.333 0 154.333 13.333 219 40c65.333 26 120.666 64.333 165.999 115c45.333 51.333 79.666 113.333 102.999 186z" />
    <glyph glyph-name="d" unicode="d" horiz-adv-x="1180" 
d="M717 127c-31.333 -37.333 -61.3301 -66.833 -89.9971 -88.5s-59 -37.167 -91 -46.5c-31.333 -8.66699 -68.666 -13 -111.999 -13c-86.667 0 -161.334 25 -224.001 75c-62 50 -108.667 115.333 -140 196s-47 166.667 -47 258c0 68 9 134.333 27 199
c17.333 65.333 43.666 123.833 78.999 175.5s79.666 92.667 132.999 123s113.333 45.5 180 45.5c43.333 0 80.666 -5 111.999 -15c38 -12 69.833 -31 95.5 -57s49.167 -55.333 70.5 -88v344h-142v240h460v-1241h140v-235h-451v128zM527.003 793
c-44 0 -81.5 -13.334 -112.5 -40.001s-53.833 -61.667 -68.5 -105c-16 -44 -24 -90.667 -24 -140c0 -75.333 18 -140.666 54 -195.999c36 -54.667 86.333 -82 151 -82c58 0 104.167 27.333 138.5 82s51.5 127.667 51.5 219c0 77.333 -17.667 140.333 -53 189s-81 73 -137 73
z" />
    <glyph glyph-name="e" unicode="e" 
d="M1020 258c-44.667 -96.667 -107.167 -168.666 -187.5 -215.999s-178.166 -71 -293.499 -71c-78 0 -149.5 12.667 -214.5 38s-120.5 61.666 -166.5 108.999s-81.167 104 -105.5 170s-36.5 139.333 -36.5 220c0 108 22.167 204.667 66.5 290s105.833 151.833 184.5 199.5
s168 71.5 268 71.5c73.333 0 140.666 -12.667 201.999 -38c60.667 -26.667 112.667 -64.167 156 -112.5s76.666 -106.5 99.999 -174.5c15.333 -44 25 -85.333 29 -124s6 -94.667 6 -168h-711c7.33301 -50.667 21.333 -94.667 42 -132
c20.667 -36.667 47.334 -64.667 80.001 -84s69.334 -29 110.001 -29c47.333 0 86.666 10 117.999 30s62.333 54.333 93 103zM325 635.001l386 0.000976562c-6 61.333 -26 110.333 -60 147c-34 35.333 -78.333 53 -133 53s-99 -18 -133 -54
c-35.333 -36.667 -55.333 -85.334 -60 -146.001z" />
    <glyph glyph-name="f" unicode="f" horiz-adv-x="588" 
d="M-8 0l-0.000976562 234.003h141v573h-141v236h150c-4.66699 33.333 -7 68.666 -7 105.999c0 101.333 23.333 183.333 70 246c35.333 43.333 80 76.333 134 99s111 34 171 34c66.667 0 129 -13.833 187 -41.5s104.333 -67.834 139 -120.501l-236 -166
c-15.333 41.333 -29.666 69.666 -42.999 84.999c-14 16 -31 24 -51 24c-22 0 -36 -10 -42 -30c-6 -19.333 -9 -98 -9 -236h145v-236h-145v-573h145v-234h-608z" />
    <glyph glyph-name="g" unicode="g" horiz-adv-x="1180" 
d="M733 154c-37.333 -58 -75.8359 -98.167 -115.503 -120.5s-92.5 -33.5 -158.5 -33.5c-91.333 0 -170.333 20.667 -237 62s-117.667 101.166 -153 179.499s-53 171.833 -53 280.5c0 102.667 18.5 195.5 55.5 278.5s88.333 147.833 154 194.5s138.834 70 219.501 70
c57.333 0 110.333 -13.667 159 -41s87.667 -66.333 117 -117v136h455v-237h-144v-727c0 -90 -5 -157.167 -15 -201.5s-28.667 -84.5 -56 -120.5c-43.333 -57.333 -103.666 -100.666 -180.999 -129.999c-77.333 -28.667 -168.666 -43 -273.999 -43
c-174 0 -319.667 41.667 -437 125l163 190c87.333 -47.333 177.333 -71 270 -71c104 0 173.667 36.333 209 109c14.667 40 22 112.333 22 217zM530.997 806h-2c-59.333 0 -105 -24.667 -137 -74c-33.333 -50 -50 -119 -50 -207c0 -92.667 17 -163.667 51 -213
s82.667 -74 146 -74c57.333 0 102 23.667 134 71s48 114.333 48 201c0 62 -7.5 115.5 -22.5 160.5s-36.833 78.833 -65.5 101.5s-62.667 34 -102 34z" />
    <glyph glyph-name="h" unicode="h" horiz-adv-x="1180" 
d="M4 0h605v234h-140v473c75.333 42 132 63 170 63c54.667 0 82 -36 82 -108v-662h459v234h-139l-4 522c0 95.333 -24.333 169.333 -73 222s-116.667 79 -204 79c-104.667 0 -203 -45 -295 -135v553h-452v-240h137v-1001h-146v-234z" />
    <glyph glyph-name="i" unicode="i" horiz-adv-x="588" 
d="M0 0h592v234l-139 -1v809h-453v-235h137v-573h-137v-234zM309 1524c-55.333 0 -99.167 -18.499 -131.5 -55.499s-48.5 -80.5 -48.5 -130.5c0 -48 15.5 -89.833 46.5 -125.5s74.167 -53.5 129.5 -53.5c56 0 99.833 18.667 131.5 56s47.5 80.333 47.5 129
c0 49.333 -15.333 91.666 -46 126.999s-73.667 53 -129 53z" />
    <glyph glyph-name="j" unicode="j" horiz-adv-x="498" 
d="M-94 -433l0.000976562 267.002c65.333 0 106.166 1.16699 122.499 3.5s31.5 7.16602 45.5 14.499c20 11.333 34.167 32 42.5 62s12.5 73 12.5 129v764h-137v236h453v-1022c0 -65.333 -3 -119 -9 -161c-6 -41.333 -16.333 -76.333 -31 -105s-35.667 -56.334 -63 -83.001
c-74 -70 -175.667 -105 -305 -105h-131zM293.001 1532c54.667 0 96.998 -18 126.998 -54s45 -79.333 45 -130c0 -50 -15.833 -94.167 -47.5 -132.5s-75.167 -57.5 -130.5 -57.5c-53.333 0 -94.666 18.5 -123.999 55.5s-44 79.833 -44 128.5c0 51.333 15.333 95.833 46 133.5
s73.334 56.5 128.001 56.5z" />
    <glyph glyph-name="k" unicode="k" horiz-adv-x="1227" 
d="M13 0h587v234h-135v280l424 -514h334v234h-141l-275 327l291 279h117v203h-615v-203h189l-328 -297v932h-448v-240h137v-1001h-137v-234z" />
    <glyph glyph-name="l" unicode="l" horiz-adv-x="588" 
d="M0 0v234h137v1001h-137v240h453v-1241h139v-234h-592z" />
    <glyph glyph-name="m" unicode="m" horiz-adv-x="1725" 
d="M0 0l-0.000976562 234h137v573h-137v236h455v-117c42.667 40.667 90.334 72.667 143.001 96s104.667 35 156 35c105.333 0 186 -47.667 242 -143c72 58 129.333 97 172 117s91 30 145 30c82 0 147.5 -26.5 196.5 -79.5s73.5 -123.833 73.5 -212.5v-535h142v-234h-435v645
c0 96 -36.667 144 -110 144c-24 0 -46.5 -5 -67.5 -15s-50.5 -32.333 -88.5 -67v-473h135v-234h-442v645c0 96 -34.667 144 -104 144c-45.333 0 -98 -27.333 -158 -82v-473h137v-234h-592z" />
    <glyph glyph-name="n" unicode="n" horiz-adv-x="1180" 
d="M13 0h590.999v234h-139v473c53.333 46 108 69 164 69c66.667 0 100 -40.667 100 -122v-654h443v234h-140v510c0 98.667 -24.667 175.5 -74 230.5s-116.666 82.5 -201.999 82.5c-100.667 0 -197.667 -43.667 -291 -131v117h-452v-236h137v-573h-137v-234z" />
    <glyph glyph-name="o" unicode="o" 
d="M522 1065c95.333 0 182.334 -23.667 261.001 -71s140.667 -112.166 186 -194.499s68 -173.166 68 -272.499c0 -102.667 -22.667 -195.834 -68 -279.501s-107.666 -149.334 -186.999 -197.001s-167.333 -71.5 -264 -71.5c-98 0 -185.833 23 -263.5 69
s-138.167 109.667 -181.5 191s-65 173 -65 275c0 103.333 22.667 197 68 281s107.166 150 185.499 198s165.166 72 260.499 72zM522.001 810l-2.00098 -0.000976562c-60.667 0 -107.5 -24.5 -140.5 -73.5s-49.5 -117.5 -49.5 -205.5c0 -109.333 20 -188.666 60 -237.999
c32.667 -39.333 78.334 -59 137.001 -59c66 0 114.333 25.667 145 77c27.333 46 41 111.667 41 197c0 98 -16.333 172.833 -49 224.5s-80 77.5 -142 77.5z" />
    <glyph glyph-name="p" unicode="p" horiz-adv-x="1180" 
d="M8 -416l596 -0.000976562v233h-139v320c43.333 -51.333 86.833 -87.666 130.5 -108.999s95.167 -32 154.5 -32c66 0 124.833 14.667 176.5 44s94.834 69 129.501 119s60.5 106.667 77.5 170s25.5 128.666 25.5 195.999c0 92.667 -15.667 180.334 -47 263.001
c-32 83.333 -79.667 150.333 -143 201s-139 76 -227 76c-59.333 0 -110.833 -11.667 -154.5 -35s-85.834 -62 -126.501 -116v129h-453v-236h138v-990h-138v-233zM662 810.999c57.333 0 102.667 -24.667 136 -74s50 -116.666 50 -201.999c0 -56 -7.83301 -105.667 -23.5 -149
s-38.5 -76.666 -68.5 -99.999c-29.333 -24 -63.333 -36 -102 -36c-42.667 0 -79.334 13 -110.001 39c-30 25.333 -53 58.666 -69 99.999c-15.333 41.333 -23 85.666 -23 132.999c0 77.333 18.833 144.833 56.5 202.5s88.834 86.5 153.501 86.5z" />
    <glyph glyph-name="q" unicode="q" horiz-adv-x="1180" 
d="M713 146l-0.000976562 -329.001h-137v-233h596v233h-135v990h135v236h-451v-129c-46.667 54.667 -91.5 92.834 -134.5 114.501s-94.5 32.5 -154.5 32.5c-78 0 -148.167 -22.667 -210.5 -68s-110.666 -109 -144.999 -191s-51.5 -175.333 -51.5 -280
c0 -103.333 17.333 -195 52 -275s84 -141.833 148 -185.5s137.333 -65.5 220 -65.5c64 0 117 11.5 159 34.5s78.333 61.5 109 115.5zM521.999 810.999c64 0 114.167 -28.833 150.5 -86.5s54.5 -125.167 54.5 -202.5c0 -73.333 -17.333 -137 -52 -191s-82.667 -81 -144 -81
c-64 0 -114 28.333 -150 85c-37.333 56.667 -56 124 -56 202c0 75.333 17.167 139.833 51.5 193.5s82.833 80.5 145.5 80.5z" />
    <glyph glyph-name="r" unicode="r" horiz-adv-x="819" 
d="M13 0l0.00195312 234.001h137v573h-137v236h428v-215c31.333 66.667 61.333 116.667 90 150c29.333 32.667 65.166 55.667 107.499 69s99.833 20.666 172.5 21.999v-317c-73.333 -4 -125.333 -10.667 -156 -20s-62.667 -28.333 -96 -57
c-32.667 -32 -56.334 -74.333 -71.001 -127c-0.666992 -2.66699 -2.5 -9.5 -5.5 -20.5s-6 -28.833 -9 -53.5s-5.16699 -54.667 -6.5 -90c-1.33301 -36 -2 -86 -2 -150h189v-234h-641z" />
    <glyph glyph-name="s" unicode="s" horiz-adv-x="957" 
d="M53 377h234.003c12.667 -47.333 27.667 -83.833 45 -109.5s39.666 -43.5 66.999 -53.5c28 -10.667 65 -16 111 -16c35.333 0 70 10.333 104 31c34.667 20 52 44 52 72c0 22 -12.333 43.333 -37 64c-14.667 11.333 -35 18.833 -61 22.5l-121.5 16.5
c-55 7.33301 -100.167 15.666 -135.5 24.999c-82 22 -151 58.333 -207 109c-56 51.333 -84 117 -84 197c0 67.333 18 126 54 176s82.667 87.833 140 113.5s118 38.5 182 38.5c97.333 0 179.666 -25.667 246.999 -77v57h228v-316h-228c-22.667 47.333 -49 79.333 -79 96
s-74 25 -132 25c-94 0 -141 -26.667 -141 -80c0 -22 9.66699 -38.333 29 -49s56.666 -21.667 111.999 -33c89.333 -17.333 158.5 -32 207.5 -44s86.333 -22.5 112 -31.5s45.5 -18.5 59.5 -28.5s31.333 -25.333 52 -46c52.667 -54 79 -122 79 -204
c0 -74.667 -18 -138.167 -54 -190.5s-83.667 -91.166 -143 -116.499c-58.667 -26.667 -122.667 -40 -192 -40c-102 0 -190.667 24.667 -266 74v-60h-234v378z" />
    <glyph glyph-name="t" unicode="t" horiz-adv-x="635" 
d="M4 807v236.001h123v133l309 282v-415h185v-236h-176v-407c0 -41.333 2.33301 -72.333 7 -93c5.33301 -24.667 15 -40.334 29 -47.001s32 -10 54 -10c29.333 0 61.333 12.333 96 37v-262c-78 -33.333 -152.333 -50 -223 -50c-66.667 0 -120.5 10.5 -161.5 31.5
s-71.167 53.5 -90.5 97.5s-29 102.333 -29 175v528h-123z" />
    <glyph glyph-name="u" unicode="u" horiz-adv-x="1180" 
d="M13 807h139v-487c0 -109.333 23.833 -192.833 71.5 -250.5s117.167 -86.5 208.5 -86.5c96.667 0 190.334 42.667 281.001 128v-111h459v234h-140v809h-456v-236h137v-471c-50.667 -49.333 -103.334 -74 -158.001 -74c-37.333 0 -64.333 13.167 -81 39.5
s-25 69.833 -25 130.5v611h-436v-236z" />
    <glyph glyph-name="v" unicode="v" horiz-adv-x="1133" 
d="M-8 807h123l313 -807h285l311 807h125v236h-492v-236h115l-176 -528l-155 528h112v236h-561v-236z" />
    <glyph glyph-name="w" unicode="w" horiz-adv-x="1678" 
d="M-4 807h123l250 -807h305l180 717l166 -717h297l246 807h127v236h-471v-236h111l-117 -459l-172 695h-320l-182 -695l-107 459h107v236h-543v-236z" />
    <glyph glyph-name="x" unicode="x" horiz-adv-x="1094" 
d="M12 0h301l222 312l221 -312h321v234h-110l-246 301l246 272h110v236h-309l-213 -295l-190 295h-353v-236h125l219 -299l-233 -274h-111v-234z" />
    <glyph glyph-name="y" unicode="y" horiz-adv-x="1133" 
d="M0 807v236h545v-236h-100l159 -471l173 471h-111v236h475v-236h-129l-459 -1223h-373v233h211l78 191l-346 799h-123z" />
    <glyph glyph-name="z" unicode="z" horiz-adv-x="957" 
d="M4 0h951v361h-213v-158h-381l594 625v215h-904v-353h207v150h339l-593 -623v-217z" />
    <glyph glyph-name="nonbreakingspace" unicode="&#xa0;" horiz-adv-x="223" 
 />
    <glyph glyph-name="exclamdown" unicode="&#xa1;" horiz-adv-x="453" 
d="M43 0h326l-4 381l-68 578h-164l-90 -602v-357zM51 1129h328v356h-328v-356z" />
    <glyph glyph-name="cent" unicode="&#xa2;" 
d="M482 -4v-170h118v170c73.333 7.33301 134.666 21.666 183.999 42.999c50 20.667 95 51.834 135 93.501s82 99.167 126 172.5l-234 111l-18 -33c-34.667 -49.333 -68 -84.5 -100 -105.5s-71 -31.5 -117 -31.5c-77.333 0 -137.333 27.667 -180 83
c-42 54.667 -63 120 -63 196s21 142 63 198c42.667 56 101.334 84 176.001 84c112 0 184.333 -61.333 217 -184h223v411h-201v-88c-39.333 32.667 -72 55.5 -98 68.5s-63.667 25.167 -113 36.5v158h-118v-158c-89.333 -9.33301 -169 -39 -239 -89
c-70 -49.333 -124.5 -113.833 -163.5 -193.5s-58.5 -165.834 -58.5 -258.501c0 -90.667 20 -172 60 -244s94.833 -130.667 164.5 -176s148.5 -76.666 236.5 -93.999z" />
    <glyph glyph-name="sterling" unicode="&#xa3;" horiz-adv-x="1094" 
d="M1098 449l-135.003 18.001l-2 -51c-6 -124 -57.333 -186 -154 -186c-35.333 0 -66.333 4.66699 -93 14c-26.667 10 -56.334 27.667 -89.001 53l-20 10c22 74 33 137 33 189c0 27.333 -2 53.333 -6 78l-3 57v14h238v190h-287c-10 27.333 -27.667 66 -53 116
c-26 50.667 -45.5 93.667 -58.5 129s-19.5 71.333 -19.5 108c0 102.667 51.667 154 155 154c54.667 0 96.334 -18.333 125.001 -55s46 -94.334 52 -173.001l260 29c-4 58 -12.167 104.667 -24.5 140s-32.166 68.666 -59.499 99.999c-39.333 48 -90.666 84.5 -153.999 109.5
s-131.666 37.5 -204.999 37.5c-76 0 -147.833 -13.667 -215.5 -41s-122.5 -68.333 -164.5 -123c-41.333 -54 -62 -118.667 -62 -194c0 -80.667 32.667 -186 98 -316l12 -21h-208v-190h303c14 -28 24.667 -61.167 32 -99.5s11 -73.166 11 -104.499
c-50.667 24 -102 36 -154 36c-70 0 -128.5 -21.167 -175.5 -63.5s-70.5 -103.5 -70.5 -183.5c0 -76 22.333 -136.167 67 -180.5s103.667 -66.5 177 -66.5c54.667 0 100 9.5 136 28.5s75.333 54.833 118 107.5l41 -31c54.667 -44 101.667 -74.5 141 -91.5
s84.333 -25.5 135 -25.5c186 0 279 130 279 390v88zM364.997 262.001c-14 -80 -54.334 -120.001 -121.001 -120.001c-29.333 0 -52.333 9.33301 -69 28s-25 44 -25 76c0 54.667 21 82 63 82c23.333 0 49.833 -7.16699 79.5 -21.5s53.834 -29.166 72.501 -44.499z" />
    <glyph glyph-name="section" unicode="&#xa7;" horiz-adv-x="996" 
d="M373 -92h-314.998v-37c0 -80 20 -148.333 60 -205c40.667 -56.667 93.667 -99.334 159 -128.001c66 -28 137 -42 213 -42c58.667 0 115.667 8.33301 171 25c55.333 17.333 105.166 42.666 149.499 75.999s79.833 74.666 106.5 123.999c25.333 49.333 38 105.333 38 168
c0 80 -23.333 150.667 -70 212l-14 18c-6 6.66699 -10 11.334 -12 14.001c40.667 50.667 71 92.334 91 125.001s34 64.334 42 95.001s12 68 12 112c0 80.667 -18.667 151.167 -56 211.5s-96 114.833 -176 163.5l-184 106c-68.667 40.667 -118.667 79 -150 115
s-47 74.333 -47 115c0 41.333 12.667 75.5 38 102.5s56.333 40.5 93 40.5c44.667 0 76.667 -16.167 96 -48.5s32.666 -88.5 39.999 -168.5h281v12c0 61.333 -12 117 -36 167c-24 50.667 -56.333 93 -97 127s-87.5 60.167 -140.5 78.5s-108.833 27.5 -167.5 27.5
c-84 0 -158.833 -15.667 -224.5 -47s-116.667 -74.666 -153 -129.999s-54.5 -118.666 -54.5 -189.999c0 -44 8.33301 -84.5 25 -121.5s45 -77.833 85 -122.5c-66 -65.333 -111.167 -121.833 -135.5 -169.5s-36.5 -103.834 -36.5 -168.501c0 -60.667 13.167 -115 39.5 -163
s60.5 -89.667 102.5 -125s80.667 -63 116 -83l191 -102c68.667 -39.333 117 -75.333 145 -108s42 -70.334 42 -113.001c0 -52.667 -12 -93.667 -36 -123c-23.333 -28.667 -57.333 -43 -102 -43c-86 0 -129 67.667 -129 203zM658.002 312c-153.333 76 -264 143.333 -332 202
c-27.333 27.333 -41 56 -41 86c0 40 25.333 85 76 135c26.667 -14 56.667 -30.667 90 -50l76 -44c51.333 -28 97 -61.667 137 -101c40 -38.667 60 -78 60 -118c0 -41.333 -22 -78 -66 -110z" />
    <glyph glyph-name="dieresis" unicode="&#xa8;" horiz-adv-x="223" 
d="M-205 1481c-48.667 0 -86.667 -17.001 -114 -51.001c-28 -33.333 -42 -71.666 -42 -114.999c0 -44 13.167 -81.667 39.5 -113s63.833 -47 112.5 -47c50 0 89.5 16.5 118.5 49.5s43.5 71.167 43.5 114.5c0 44.667 -13.667 82.667 -41 114c-28 32 -67 48 -117 48zM215 1479
c-48.667 0 -87.501 -17 -116.501 -51s-43.5 -73 -43.5 -117s13.833 -82.333 41.5 -115s65.834 -49 114.501 -49c49.333 0 88 16.833 116 50.5s42 73.5 42 119.5c0 44 -13.333 82 -40 114s-64.667 48 -114 48z" />
    <glyph glyph-name="guillemotleft" unicode="&#xab;" 
d="M-17 549l351 -506h301l-349 510l353 490h-297zM403 535l339 -492h313l-348 506l354 494h-293z" />
    <glyph glyph-name="acute" unicode="&#xb4;" horiz-adv-x="223" 
d="M-164 1168h201l305 342h-289z" />
    <glyph glyph-name="paragraph" unicode="&#xb6;" horiz-adv-x="1133" 
d="M522 -445l50 -0.00195312v826v1036h217v-823v-1039h51v826v1036h270v58h-575c-78 0 -152.333 -12.167 -223 -36.5s-128.667 -63.166 -174 -116.499s-68 -120.333 -68 -201s20.333 -147.167 61 -199.5s95 -90.166 163 -113.499c68.667 -24 144.667 -36 228 -36v-178v-1039
z" />
    <glyph glyph-name="periodcentered" unicode="&#xb7;" horiz-adv-x="453" 
d="M223 926c-54.667 0 -97.333 -18.333 -128 -55s-46 -80.334 -46 -131.001c0 -49.333 15 -92.166 45 -128.499s71.667 -54.5 125 -54.5c57.333 0 102 18.667 134 56c32.667 37.333 49 81 49 131c0 49.333 -15.833 92 -47.5 128s-75.5 54 -131.5 54z" />
    <glyph glyph-name="cedilla" unicode="&#xb8;" horiz-adv-x="223" 
d="M-293 -344c90.667 -98.667 199.331 -148.002 325.998 -148.002c44 0 85.167 9.83301 123.5 29.5s69 46 92 79s34.5 67.833 34.5 104.5c0 41.333 -11 76 -33 104s-50.667 48.667 -86 62c-35.333 14 -72 21 -110 21l49 129h-169l-84 -215l23 -17c18 8 40.333 12 67 12
c36 0 68.167 -8.16699 96.5 -24.5s42.5 -40.166 42.5 -71.499c0 -22.667 -8.66699 -40.667 -26 -54c-16.667 -13.333 -40 -20 -70 -20c-25.333 0 -49.666 4.83301 -72.999 14.5s-61.666 30.834 -114.999 63.501z" />
    <glyph glyph-name="guillemotright" unicode="&#xbb;" 
d="M-17 43h295l365 506l-334 494h-314l351 -508zM407 43h295l359 492l-350 508h-296l353 -512z" />
    <glyph glyph-name="questiondown" unicode="&#xbf;" horiz-adv-x="996" 
d="M1012 436l-299.005 0.000976562c-5.33301 -87.333 -21.166 -147.5 -47.499 -180.5s-71.166 -49.5 -134.499 -49.5c-62.667 0 -111 17.5 -145 52.5s-51 82.167 -51 141.5c0 60 19 107.667 57 143c38.667 35.333 85.667 53 141 53c31.333 0 62 -6 92 -18l29 -13l-7 416
h-165l-23 -141c-84 -8.66699 -147.833 -19.5 -191.5 -32.5s-82.167 -34.167 -115.5 -63.5c-43.333 -32 -77.333 -76.333 -102 -133s-37 -117.667 -37 -183c0 -69.333 11.167 -131.833 33.5 -187.5s54.833 -102.334 97.5 -140.001s94.834 -66.667 156.501 -87
s131.5 -30.5 209.5 -30.5c86.667 0 167.334 15 242.001 45c74 28.667 133.333 69 178 121c28.667 38.667 49.334 78.667 62.001 120c11.333 41.333 18 97 20 167zM403.995 1151h330l-1 355h-329v-355z" />
    <glyph glyph-name="Agrave" unicode="&#xc0;" horiz-adv-x="1592" 
d="M13 0h673v237h-168l74 267h424l61 -267h-172v-237h674v237h-135l-311 994h176v244h-1008v-244h181l-330 -994h-139v-237zM652 707l155 569l150 -569h-305zM469 1866l307 -342h195l-203 342h-299z" />
    <glyph glyph-name="Aacute" unicode="&#xc1;" horiz-adv-x="1592" 
d="M13 0h673v237h-168l74 267h424l61 -267h-172v-237h674v237h-135l-311 994h176v244h-1008v-244h181l-330 -994h-139v-237zM652 707l155 569l150 -569h-305zM613 1524h198l307 346h-286z" />
    <glyph glyph-name="Acircumflex" unicode="&#xc2;" horiz-adv-x="1592" 
d="M13 0h673v237h-168l74 267h424l61 -267h-172v-237h674v237h-135l-311 994h176v244h-1008v-244h181l-330 -994h-139v-237zM652 707l155 569l150 -569h-305zM469 1522h221l86 178l86 -178h215l-210 344h-185z" />
    <glyph glyph-name="Atilde" unicode="&#xc3;" horiz-adv-x="1592" 
d="M13 0h673v237h-168l74 267h424l61 -267h-172v-237h674v237h-135l-311 994h176v243h-1008v-243h181l-330 -994h-139v-237zM652 707l155 569l150 -569h-305zM353 1676l115.999 -152l13 8c48 36.667 97.667 55 149 55c9.33301 0 26.333 -1.33301 51 -4l78 -20
c54 -14 100.333 -21 139 -21c99.333 0 180 35.667 242 107l-113 158c-50 -42.667 -101 -64 -153 -64c-36 0 -75.667 9 -119 27c-42 18.667 -87 28 -135 28c-97.333 0 -186.666 -40.667 -267.999 -122z" />
    <glyph glyph-name="Adieresis" unicode="&#xc4;" horiz-adv-x="1592" 
d="M13 0h673v237h-168l74 267h424l61 -267h-172v-237h674v237h-135l-311 994h176v244h-1008v-244h181l-330 -994h-139v-237zM652 707l155 569l150 -569h-305zM568 1841c-49.333 0 -87.999 -16.833 -115.999 -50.5s-42 -72.834 -42 -117.501
c0 -43.333 13.333 -80.666 40 -111.999s64.334 -47 113.001 -47c50 0 89.167 16.333 117.5 49s42.5 71.667 42.5 117c0 27.333 -5.83301 53.333 -17.5 78s-29.334 44.667 -53.001 60s-51.834 23 -84.501 23zM991.001 1837c-48.667 0 -86.667 -16.5 -114 -49.5
s-41 -71.833 -41 -116.5c0 -44 13.667 -81.833 41 -113.5s65.333 -47.5 114 -47.5c50.667 0 90 15.833 118 47.5s42 69.5 42 113.5s-14.167 82.667 -42.5 116s-67.5 50 -117.5 50z" />
    <glyph glyph-name="Aring" unicode="&#xc5;" horiz-adv-x="1592" 
d="M13 0h673v237h-168l74 267h424l61 -267h-172v-237h674v237h-135l-311 994h176v244h-1008v-244h181l-330 -994h-139v-237zM652 707l155 569l150 -569h-305zM807 1878c-65.333 0 -116.167 -22 -152.5 -66s-54.5 -95.667 -54.5 -155c0 -60.667 18 -113 54 -157
s87 -66 153 -66c66.667 0 118.167 21.667 154.5 65s54.5 95.333 54.5 156c0 38.667 -8 75 -24 109s-39.833 61.5 -71.5 82.5s-69.5 31.5 -113.5 31.5zM806.999 1749c28.667 0 50.5 -8.83301 65.5 -26.5s22.5 -39.5 22.5 -65.5c0 -26.667 -8.33301 -50 -25 -70
s-39 -30 -67 -30c-26.667 0 -48 9.66699 -64 29s-24 42.333 -24 69c0 26 8.16699 48.167 24.5 66.5s38.833 27.5 67.5 27.5z" />
    <glyph glyph-name="AE" unicode="&#xc6;" horiz-adv-x="1954" 
d="M-8 0h608v238h-159l151 393h334v-393h-158v-238h162h1024v471h-272v-238h-408v398h343v234h-343v370h404v-234l268 1v473h-582h-1022v-244h201l-410 -993h-141v-238zM674 843l166 404h86v-404h-252z" />
    <glyph glyph-name="Ccedilla" unicode="&#xc7;" horiz-adv-x="1456" 
d="M636 -21l-59.9971 -156.998l28 -17c14.667 5.33301 34.667 8 60 8c38 -0.666992 71.333 -8.66699 100 -24c29.333 -15.333 44 -38 44 -68c0 -22.667 -8.66699 -40.667 -26 -54s-41 -20 -71 -20c-26.667 0 -51 4.66699 -73 14s-60.667 30.666 -116 63.999l-85 -69
c88 -98.667 197 -148 327 -148c43.333 0 83.666 9.83301 120.999 29.5s67.166 45.834 89.499 78.501s33.5 67.667 33.5 105c0 41.333 -10.167 76 -30.5 104s-47.5 48.667 -81.5 62c-33.333 14 -69 21 -107 21l19 59c86 3.33301 164.333 17.666 235 42.999
c71.333 24.667 135 59.5 191 104.5s103.167 99 141.5 162s67.5 134.833 87.5 215.5l-275 135c-34.667 -136 -82.667 -235 -144 -297c-61.333 -61.333 -140.333 -92 -237 -92c-62 0 -117.667 10.833 -167 32.5s-90.833 53.667 -124.5 96s-59.334 94 -77.001 155
s-26.5 129.5 -26.5 205.5c0 108.667 15.167 203.667 45.5 285s74.5 143.666 132.5 186.999s126.333 65 205 65c174.667 0 296 -99 364 -297h245l-1 518h-227v-115c-39.333 38 -78.666 68 -117.999 90c-38.667 22 -81.167 38.167 -127.5 48.5s-100.5 15.5 -162.5 15.5
c-110.667 0 -212.334 -18.333 -305.001 -55s-172.334 -89.667 -239.001 -159s-117.667 -152.333 -153 -249c-36 -96 -54 -201.667 -54 -317c0 -138.667 24.333 -262 73 -370s119.334 -195.667 212.001 -263s204 -111.333 334 -132z" />
    <glyph glyph-name="Egrave" unicode="&#xc8;" horiz-adv-x="1227" 
d="M8 0h181h1024v471h-267v-238h-408v398h343v237h-343v367h408v-234l267 1v473h-181h-1024v-244h160v-993h-160v-238zM309 1866l308 -342h194l-202 342h-300z" />
    <glyph glyph-name="Eacute" unicode="&#xc9;" horiz-adv-x="1227" 
d="M8 0h181h1024v471h-267v-238h-408v398h343v237h-343v367h408v-234l267 1v473h-181h-1024v-244h160v-993h-160v-238zM453 1524h199l305 346h-287z" />
    <glyph glyph-name="Ecircumflex" unicode="&#xca;" horiz-adv-x="1227" 
d="M8 0h181h1024v471h-267v-238h-408v398h343v237h-343v367h408v-234l267 1v473h-181h-1024v-244h160v-993h-160v-238zM309 1522h222l86 178l86 -178h215l-211 344h-185z" />
    <glyph glyph-name="Edieresis" unicode="&#xcb;" horiz-adv-x="1227" 
d="M8 0h181h1024v471h-267v-238h-408v398h343v237h-343v367h408v-234l267 1v473h-181h-1024v-244h160v-993h-160v-238zM408 1841c-49.333 0 -87.999 -16.833 -115.999 -50.5s-42 -72.834 -42 -117.501c0 -43.333 13.333 -80.666 40 -111.999s64.667 -47 114 -47
s87.833 16.167 115.5 48.5s41.5 71.5 41.5 117.5c0 43.333 -13.333 81 -40 113s-64.334 48 -113.001 48zM832.001 1837c-49.333 0 -88 -16.667 -116 -50s-42 -72 -42 -116s14 -81.833 42 -113.5s66.667 -47.5 116 -47.5c50 0 88.667 15.667 116 47s41 69.333 41 114
s-14 83.5 -42 116.5s-66.333 49.5 -115 49.5z" />
    <glyph glyph-name="Igrave" unicode="&#xcc;" horiz-adv-x="682" 
d="M-4 0h694v238h-163v993h163v244h-694v-244h160v-993h-160v-238zM37 1866l305 -342h197l-205 342h-297z" />
    <glyph glyph-name="Iacute" unicode="&#xcd;" horiz-adv-x="682" 
d="M-4 0h694v238h-163v993h163v244h-694v-244h160v-993h-160v-238zM176 1524h201l305 346h-286z" />
    <glyph glyph-name="Icircumflex" unicode="&#xce;" horiz-adv-x="682" 
d="M-4 0h694v238h-163v993h163v244h-694v-244h160v-993h-160v-238zM37 1522h221l84 178l90 -178h215l-211 344h-188z" />
    <glyph glyph-name="Idieresis" unicode="&#xcf;" horiz-adv-x="682" 
d="M-4 0h694v238h-163v993h163v244h-694v-244h160v-993h-160v-238zM137 1841c-48 0 -86.333 -17.001 -115 -51.001s-43 -73 -43 -117c0 -43.333 13.667 -80.666 41 -111.999s65 -47 113 -47c50 0 88.833 16.333 116.5 49s41.5 71.667 41.5 117c0 43.333 -13.333 81 -40 113
s-64.667 48 -114 48zM555 1837c-48 0 -85.333 -16.333 -112 -49c-28 -33.333 -42 -72.333 -42 -117c0 -44 13.667 -81.833 41 -113.5s65 -47.5 113 -47.5c50.667 0 90 15.833 118 47.5s42 69.5 42 113.5s-14.167 82.667 -42.5 116s-67.5 50 -117.5 50z" />
    <glyph glyph-name="Ntilde" unicode="&#xd1;" horiz-adv-x="1501" 
d="M4 0v238h160v993h-160v244h572l518 -987v743h-156v244h568v-244h-164v-1231h-330l-600 1141v-903h156v-238h-564zM335 1676c76 82.667 163 124 261 124c44.667 0 90.334 -10 137.001 -30c44 -19.333 84.333 -29 121 -29c48.667 0 98.667 22 150 66l115 -158
c-60.667 -71.333 -141.334 -107 -242.001 -107c-42 0 -90 7 -144 21c-56.667 16 -98 24 -124 24c-54.667 0 -108 -21 -160 -63z" />
    <glyph glyph-name="Ograve" unicode="&#xd2;" horiz-adv-x="1592" 
d="M795 1518c-114 0 -218.831 -19.001 -314.498 -57.001s-178.167 -92.333 -247.5 -163c-69.333 -70 -122.833 -153.667 -160.5 -251s-56.5 -204 -56.5 -320c0 -114 18.333 -218.333 55 -313c36.667 -94 88.667 -175 156 -243c68 -68 149.5 -120.333 244.5 -157
s199.5 -55 313.5 -55c117.333 0 224.333 18.333 321 55c97.333 36 180.666 88.5 249.999 157.5s122.5 151.833 159.5 248.5s55.5 203.334 55.5 320.001c0 114.667 -18.333 220 -55 316s-89.334 178.333 -158.001 247s-150.667 122 -246 160c-96 36.667 -201.667 55 -317 55z
M799.002 1252c57.333 0 109.498 -12.334 156.498 -37.001s87.167 -59.667 120.5 -105s59 -99.666 77 -162.999s27 -134 27 -212c0 -79.333 -8.33301 -151 -25 -215c-17.333 -63.333 -42.166 -117.333 -74.499 -162s-71.666 -78.667 -117.999 -102s-99.5 -35 -159.5 -35
c-83.333 0 -155.166 24.667 -215.499 74s-105.833 114 -136.5 194s-46 164.333 -46 253c0 88 15 171 45 249c30.667 78 75.667 141 135 189s130.666 72 213.999 72zM489 1866l306 -342h196l-202 342h-300z" />
    <glyph glyph-name="Oacute" unicode="&#xd3;" horiz-adv-x="1592" 
d="M795 1518c-114 0 -218.831 -19.001 -314.498 -57.001s-178.167 -92.333 -247.5 -163c-69.333 -70 -122.833 -153.667 -160.5 -251s-56.5 -204 -56.5 -320c0 -114 18.333 -218.333 55 -313c36.667 -94 88.667 -175 156 -243c68 -68 149.5 -120.333 244.5 -157
s199.5 -55 313.5 -55c117.333 0 224.333 18.333 321 55c97.333 36 180.666 88.5 249.999 157.5s122.5 151.833 159.5 248.5s55.5 203.334 55.5 320.001c0 114.667 -18.333 220 -55 316s-89.334 178.333 -158.001 247s-150.667 122 -246 160c-96 36.667 -201.667 55 -317 55z
M799.002 1252c57.333 0 109.498 -12.334 156.498 -37.001s87.167 -59.667 120.5 -105s59 -99.666 77 -162.999s27 -134 27 -212c0 -79.333 -8.33301 -151 -25 -215c-17.333 -63.333 -42.166 -117.333 -74.499 -162s-71.666 -78.667 -117.999 -102s-99.5 -35 -159.5 -35
c-83.333 0 -155.166 24.667 -215.499 74s-105.833 114 -136.5 194s-46 164.333 -46 253c0 88 15 171 45 249c30.667 78 75.667 141 135 189s130.666 72 213.999 72zM631 1524h201l305 346h-285z" />
    <glyph glyph-name="Ocircumflex" unicode="&#xd4;" horiz-adv-x="1592" 
d="M795 1518c-114 0 -218.831 -19.001 -314.498 -57.001s-178.167 -92.333 -247.5 -163c-69.333 -70 -122.833 -153.667 -160.5 -251s-56.5 -204 -56.5 -320c0 -114 18.333 -218.333 55 -313c36.667 -94 88.667 -175 156 -243c68 -68 149.5 -120.333 244.5 -157
s199.5 -55 313.5 -55c117.333 0 224.333 18.333 321 55c97.333 36 180.666 88.5 249.999 157.5s122.5 151.833 159.5 248.5s55.5 203.334 55.5 320.001c0 114.667 -18.333 220 -55 316s-89.334 178.333 -158.001 247s-150.667 122 -246 160c-96 36.667 -201.667 55 -317 55z
M799.002 1252c57.333 0 109.498 -12.334 156.498 -37.001s87.167 -59.667 120.5 -105s59 -99.666 77 -162.999s27 -134 27 -212c0 -79.333 -8.33301 -151 -25 -215c-17.333 -63.333 -42.166 -117.333 -74.499 -162s-71.666 -78.667 -117.999 -102s-99.5 -35 -159.5 -35
c-83.333 0 -155.166 24.667 -215.499 74s-105.833 114 -136.5 194s-46 164.333 -46 253c0 88 15 171 45 249c30.667 78 75.667 141 135 189s130.666 72 213.999 72zM489 1522h222l84 178l86 -178h221l-217 344h-182z" />
    <glyph glyph-name="Otilde" unicode="&#xd5;" horiz-adv-x="1592" 
d="M795 1517c-114 0 -218.664 -19.001 -313.997 -57.001c-96 -37.333 -178.667 -91.333 -248 -162c-69.333 -70 -122.833 -153.667 -160.5 -251s-56.5 -204 -56.5 -320c0 -114 18.333 -218.333 55 -313c36.667 -94 88.667 -175 156 -243c68 -68 149.5 -120.333 244.5 -157
s199.5 -55 313.5 -55c117.333 0 224.333 18.333 321 55c97.333 36 180.666 88.5 249.999 157.5s122.5 151.833 159.5 248.5s55.5 203.334 55.5 320.001c0 114.667 -18.333 220 -55 316s-89.334 178.333 -158.001 247s-150.834 121.5 -246.501 158.5
s-201.167 55.5 -316.5 55.5zM799.003 1252c57.333 0 109.498 -12.334 156.498 -37.001s87.167 -59.667 120.5 -105s59 -99.666 77 -162.999s27 -134 27 -212c0 -79.333 -8.33301 -151 -25 -215c-17.333 -63.333 -42.166 -117.333 -74.499 -162
s-71.666 -78.667 -117.999 -102s-99.5 -35 -159.5 -35c-83.333 0 -155.166 24.667 -215.499 74s-105.833 114 -136.5 194s-46 164.333 -46 253c0 88 15 171 45 249c30.667 78 75.667 141 135 189s130.666 72 213.999 72zM372.001 1676l118.001 -153l12 9
c48 36.667 98 55 150 55c9.33301 0 26.333 -1.33301 51 -4l78 -20c50 -15.333 97 -23 141 -23c98.667 0 177.667 36.333 237 109l-112 158c-50 -42.667 -100.667 -64 -152 -64c-38 0 -77.667 9 -119 27c-41.333 18.667 -86.333 28 -135 28
c-96.667 0 -186.334 -40.667 -269.001 -122z" />
    <glyph glyph-name="Odieresis" unicode="&#xd6;" horiz-adv-x="1592" 
d="M795 1518c-114 0 -218.831 -19.001 -314.498 -57.001s-178.167 -92.333 -247.5 -163c-69.333 -70 -122.666 -153.667 -159.999 -251s-56 -204 -56 -320c0 -114 18 -218.333 54 -313c36.667 -94 88.667 -175 156 -243c68 -68 149.5 -120.333 244.5 -157
s199.5 -55 313.5 -55c117.333 0 224.333 18.333 321 55c97.333 36 180.666 88.5 249.999 157.5s122.5 151.833 159.5 248.5s55.5 203.334 55.5 320.001c0 114.667 -18.333 220 -55 316s-89.334 178.333 -158.001 247s-150.834 121.667 -246.501 159s-201.167 56 -316.5 56z
M799.002 1252c57.333 0 109.497 -12.334 156.497 -37.001s87.167 -59.667 120.5 -105s59 -99.666 77 -162.999s27 -134 27 -212c0 -79.333 -8.33301 -151 -25 -215c-17.333 -63.333 -42.166 -117.333 -74.499 -162s-71.666 -78.667 -117.999 -102s-99.5 -35 -159.5 -35
c-83.333 0 -155.166 24.667 -215.499 74s-105.666 114 -135.999 194s-45.5 164.333 -45.5 253c0 88 15 171 45 249s74.667 141 134 189s130.666 72 213.999 72zM591.999 1841c-49.333 0 -88.334 -16.832 -117.001 -50.499s-43 -72.834 -43 -117.501
c0 -44 13.5 -81.5 40.5 -112.5s65.5 -46.5 115.5 -46.5c48.667 0 86.834 16.333 114.501 49s41.5 71.667 41.5 117c0 42.667 -13.5 80.167 -40.5 112.5s-64.167 48.5 -111.5 48.5zM1012 1837c-48.667 0 -86.832 -16.667 -114.499 -50s-41.5 -72 -41.5 -116
s13.667 -81.833 41 -113.5s65.666 -47.5 114.999 -47.5s87.666 15.667 114.999 47c27.333 32 41 70 41 114c0 44.667 -13.667 83.5 -41 116.5s-65.666 49.5 -114.999 49.5z" />
    <glyph glyph-name="Oslash" unicode="&#xd8;" horiz-adv-x="1592" 
d="M1313 1544l-100.002 -134.999c-129.333 72.667 -268.666 109 -417.999 109c-114 0 -218.833 -19 -314.5 -57s-178.167 -92 -247.5 -162c-68.667 -70 -122 -153.5 -160 -250.5s-57 -202.833 -57 -317.5c0 -126 20.5 -236.667 61.5 -332s105.167 -185.333 192.5 -270
l-94 -121l103 -76l94 124c110 -64.667 250 -97 420 -97c115.333 0 221 18.5 317 55.5s178.667 89.833 248 158.5c68.667 69.333 121.334 151.666 158.001 246.999s55 200.333 55 315c0 258.667 -86 461 -258 607l98 137zM481.998 420.001c-46 97.333 -69 208.667 -69 334
c0 88.667 13.333 170.5 40 245.5s68.667 135.833 126 182.5s129.333 70 216 70c92 0 169.667 -31 233 -93zM558.998 316.002l551.004 741c46.667 -95.333 70 -207.333 70 -336c0 -87.333 -13.333 -169 -40 -245s-68.334 -137.5 -125.001 -184.5
s-127.334 -70.5 -212.001 -70.5c-48.667 0 -91.334 7 -128.001 21s-75.334 38.667 -116.001 74z" />
    <glyph glyph-name="Ugrave" unicode="&#xd9;" horiz-adv-x="1364" 
d="M8 1231l163.999 -0.00195312v-766c0 -131.333 21.333 -233.666 64 -306.999c37.333 -62.667 98.333 -112.5 183 -149.5s179.334 -55.5 284.001 -55.5c59.333 0 115.666 6.66699 168.999 20c52.667 14 100.667 34.333 144 61s79 58.334 107 95.001
c24.667 35.333 42.334 79.666 53.001 132.999s16 123 16 209v760h168v244h-536v-244h131v-756c0 -66 -6.33301 -117.667 -19 -155s-34 -63.666 -64 -78.999c-29.333 -16 -70 -24 -122 -24c-54.667 0 -97.167 7.83301 -127.5 23.5s-51.833 42.167 -64.5 79.5s-19 89 -19 155
v756h131v244h-662v-244zM376.999 1866l305 -342h197l-205 342h-297z" />
    <glyph glyph-name="Uacute" unicode="&#xda;" horiz-adv-x="1364" 
d="M8 1231l163.999 -0.00195312v-766c0 -131.333 21.333 -233.666 64 -306.999c37.333 -62.667 98.333 -112.5 183 -149.5s179.334 -55.5 284.001 -55.5c59.333 0 115.666 6.66699 168.999 20c52.667 14 100.667 34.333 144 61s79 58.334 107 95.001
c24.667 35.333 42.334 79.666 53.001 132.999s16 123 16 209v760h168v244h-536v-244h131v-756c0 -66 -6.33301 -117.667 -19 -155s-34 -63.666 -64 -78.999c-29.333 -16 -70 -24 -122 -24c-54.667 0 -97.167 7.83301 -127.5 23.5s-51.833 42.167 -64.5 79.5s-19 89 -19 155
v756h131v244h-662v-244zM517.999 1524h199l307 346h-286z" />
    <glyph glyph-name="Ucircumflex" unicode="&#xdb;" horiz-adv-x="1364" 
d="M8 1231l163.999 -0.00195312v-766c0 -131.333 21.333 -233.666 64 -306.999c37.333 -62.667 98.333 -112.5 183 -149.5s179.334 -55.5 284.001 -55.5c59.333 0 115.666 6.66699 168.999 20c52.667 14 100.667 34.333 144 61s79 58.334 107 95.001
c24.667 35.333 42.334 79.666 53.001 132.999s16 123 16 209v760h168v244h-536v-244h131v-756c0 -66 -6.33301 -117.667 -19 -155s-34 -63.666 -64 -78.999c-29.333 -16 -70 -24 -122 -24c-54.667 0 -97.167 7.83301 -127.5 23.5s-51.833 42.167 -64.5 79.5s-19 89 -19 155
v756h131v244h-662v-244zM376.999 1522h223l82 178l90 -178h215l-211 344h-184z" />
    <glyph glyph-name="Udieresis" unicode="&#xdc;" horiz-adv-x="1364" 
d="M8 1231l163.999 -0.00195312v-766c0 -131.333 21.333 -233.666 64 -306.999c37.333 -62.667 98.333 -112.5 183 -149.5s179.334 -55.5 284.001 -55.5c59.333 0 115.666 6.66699 168.999 20c52.667 14 100.667 34.333 144 61s79 58.334 107 95.001
c24.667 35.333 42.334 79.666 53.001 132.999s16 123 16 209v760h168v244h-536v-244h131v-756c0 -66 -6.33301 -117.667 -19 -155s-34 -63.666 -64 -78.999c-29.333 -16 -70 -24 -122 -24c-54.667 0 -97.167 7.83301 -127.5 23.5s-51.833 42.167 -64.5 79.5s-19 89 -19 155
v756h131v244h-662v-244zM476.999 1841c-48.667 0 -87.334 -17.001 -116.001 -51.001s-43 -73 -43 -117c0 -43.333 13.5 -80.666 40.5 -111.999s65.167 -47 114.5 -47c50 0 89.167 16.333 117.5 49s42.5 71.667 42.5 117c0 27.333 -5.83301 53.333 -17.5 78
s-29.5 44.667 -53.5 60c-23.333 15.333 -51.666 23 -84.999 23zM896.999 1837c-48 0 -85.5 -16.5 -112.5 -49.5s-40.5 -71.833 -40.5 -116.5c0 -44 13.333 -81.667 40 -113c27.333 -32 65 -48 113 -48c50 0 88.833 15.667 116.5 47s41.5 69.333 41.5 114s-14 83.5 -42 116.5
s-66.667 49.5 -116 49.5z" />
    <glyph glyph-name="Yacute" unicode="&#xdd;" horiz-adv-x="1364" 
d="M-4 1231h127l363 -657v-336h-185v-238h746v238h-185v336l365 657h145v244h-565v-244h119l-209 -375l-182 375h108v244h-647v-244zM518 1524h199l307 346h-286z" />
    <glyph glyph-name="germandbls" unicode="&#xdf;" horiz-adv-x="1133" 
d="M-4 0l445.001 0.00195312v25v1032c0 157.333 50.333 236 151 236c40.667 0 73.667 -14.667 99 -44c25.333 -28.667 38 -66 38 -112c0 -59.333 -11.333 -99 -34 -119c-24 -20.667 -72.333 -33 -145 -37v-250c99.333 0 162 -6.66699 188 -20c60 -30 90 -101.667 90 -215
c0 -74.667 -18.667 -131.667 -56 -171c-36.667 -39.333 -87.667 -59 -153 -59c-6.66699 0 -22.334 1.33301 -47.001 4v-257c35.333 -8.66699 77.666 -13 126.999 -13c140.667 0 247.167 41.833 319.5 125.5s108.5 208.5 108.5 374.5c0 106.667 -20.5 191.667 -61.5 255
s-107.167 112.666 -198.5 147.999c50.667 35.333 86 72 106 110c20.667 37.333 31 86 31 146c0 74.667 -18.667 138.667 -56 192c-36.667 52.667 -85.667 92 -147 118s-127.666 39 -198.999 39c-76.667 0 -150.667 -15.333 -222 -46
c-70.667 -30.667 -128 -75.334 -172 -134.001s-66 -127.667 -66 -207v-166h-146v-238h146v-476h-146v-241z" />
    <glyph glyph-name="agrave" unicode="&#xe0;" horiz-adv-x="1094" 
d="M647 101l0.00195312 -101h435v234h-135l-1 483c0 112 -37.833 197.333 -113.5 256s-185.834 88 -330.501 88c-82 0 -151.833 -8.5 -209.5 -25.5s-107.167 -44.5 -148.5 -82.5s-78 -88.667 -110 -152l245 -49c46.667 65.333 108 98 184 98c50.667 0 94 -16.667 130 -50
c36.667 -33.333 55 -79.333 55 -138l-1 -68c-66.667 24 -115.334 39.167 -146.001 45.5s-65.667 9.5 -105 9.5c-73.333 0 -138.833 -14.333 -196.5 -43s-102.5 -69 -134.5 -121s-48 -111.333 -48 -178c0 -68 15.5 -125.833 46.5 -173.5s72.333 -83.5 124 -107.5
s107.5 -36 167.5 -36c116 0 213.333 37 292 111zM644.002 295c-69.333 -66.667 -135.667 -100 -199 -100c-38.667 0 -68 11.667 -88 35c-20.667 24 -31 52.667 -31 86c0 38 12 71.667 36 101c24.667 29.333 57.667 44 99 44c26.667 0 51.167 -4.5 73.5 -13.5
s58.833 -29.167 109.5 -60.5v-92zM240.001 1506l305 -338h197l-203 338h-299z" />
    <glyph glyph-name="aacute" unicode="&#xe1;" horiz-adv-x="1094" 
d="M647 101l0.00195312 -101h435v234h-135l-1 483c0 112 -37.833 197.333 -113.5 256s-185.834 88 -330.501 88c-82 0 -151.833 -8.5 -209.5 -25.5s-107.167 -44.5 -148.5 -82.5s-78 -88.667 -110 -152l245 -49c46.667 65.333 108 98 184 98c50.667 0 94 -16.667 130 -50
c36.667 -33.333 55 -79.333 55 -138l-1 -68c-66.667 24 -115.334 39.167 -146.001 45.5s-65.667 9.5 -105 9.5c-73.333 0 -138.833 -14.333 -196.5 -43s-102.5 -69 -134.5 -121s-48 -111.333 -48 -178c0 -68 15.5 -125.833 46.5 -173.5s72.333 -83.5 124 -107.5
s107.5 -36 167.5 -36c116 0 213.333 37 292 111zM644.002 295c-69.333 -66.667 -135.667 -100 -199 -100c-38.667 0 -68 11.667 -88 35c-20.667 24 -31 52.667 -31 86c0 38 12 71.667 36 101c24.667 29.333 57.667 44 99 44c26.667 0 51.167 -4.5 73.5 -13.5
s58.833 -29.167 109.5 -60.5v-92zM380.001 1168h200l305 342h-281z" />
    <glyph glyph-name="acircumflex" unicode="&#xe2;" horiz-adv-x="1094" 
d="M647 101l0.00195312 -101h435v234h-135l-1 483c0 112 -37.833 197.333 -113.5 256s-185.834 88 -330.501 88c-82 0 -151.833 -8.5 -209.5 -25.5s-107.167 -44.5 -148.5 -82.5s-78 -88.667 -110 -152l245 -49c46.667 65.333 108 98 184 98c50.667 0 94 -16.667 130 -50
c36.667 -33.333 55 -79.333 55 -138l-1 -68c-66.667 24 -115.334 39.167 -146.001 45.5s-65.667 9.5 -105 9.5c-73.333 0 -138.833 -14.333 -196.5 -43s-102.5 -69 -134.5 -121s-48 -111.333 -48 -178c0 -68 15.5 -125.833 46.5 -173.5s72.333 -83.5 124 -107.5
s107.5 -36 167.5 -36c116 0 213.333 37 292 111zM644.002 295c-69.333 -66.667 -135.667 -100 -199 -100c-38.667 0 -68 11.667 -88 35c-20.667 24 -31 52.667 -31 86c0 38 12 71.667 36 101c24.667 29.333 57.667 44 99 44c26.667 0 51.167 -4.5 73.5 -13.5
s58.833 -29.167 109.5 -60.5v-92zM240.001 1159h222l83 179l90 -179h218l-214 347h-184z" />
    <glyph glyph-name="atilde" unicode="&#xe3;" horiz-adv-x="1094" 
d="M647 101l0.00195312 -101h435v234h-135l-1 483c0 112 -37.833 197.333 -113.5 256s-185.834 88 -330.501 88c-82 0 -151.833 -8.5 -209.5 -25.5s-107.167 -44.5 -148.5 -82.5s-78 -88.667 -110 -152l245 -49c46.667 65.333 108 98 184 98c50.667 0 94 -16.667 130 -50
c36.667 -33.333 55 -79.333 55 -138l-1 -68c-66.667 24 -115.334 39.167 -146.001 45.5s-65.667 9.5 -105 9.5c-73.333 0 -138.833 -14.333 -196.5 -43s-102.5 -69 -134.5 -121s-48 -111.333 -48 -178c0 -68 15.5 -125.833 46.5 -173.5s72.333 -83.5 124 -107.5
s107.5 -36 167.5 -36c116 0 213.333 37 292 111zM644.002 295c-69.333 -66.667 -135.667 -100 -199 -100c-38.667 0 -68 11.667 -88 35c-20.667 24 -31 52.667 -31 86c0 38 12 71.667 36 101c24.667 29.333 57.667 44 99 44c26.667 0 51.167 -4.5 73.5 -13.5
s58.833 -29.167 109.5 -60.5v-92zM128.001 1319l111.999 -151l14 8c56 38 106.667 57 152 57c20 0 36.333 -2.66699 49 -8l76 -21c56 -12 104.333 -18 145 -18c98.667 0 176.667 34 234 102l-111 162c-35.333 -28 -63 -47 -83 -57c-19.333 -9.33301 -40.666 -14 -63.999 -14
c-24 0 -65.667 10 -125 30c-48.667 22 -96 33 -142 33c-91.333 0 -177 -41 -257 -123z" />
    <glyph glyph-name="adieresis" unicode="&#xe4;" horiz-adv-x="1094" 
d="M647 101l0.00195312 -101h435v234h-136v483c0 112 -37.833 197.333 -113.5 256s-185.834 88 -330.501 88c-82 0 -151.833 -8.5 -209.5 -25.5s-107.167 -44.5 -148.5 -82.5s-78.333 -88.667 -111 -152l246 -49c46.667 65.333 108 98 184 98c50.667 0 94 -16.667 130 -50
s54 -79.333 54 -138v-68c-66.667 24 -115.334 39.167 -146.001 45.5s-65.667 9.5 -105 9.5c-73.333 0 -138.833 -14.333 -196.5 -43s-102.5 -69 -134.5 -121s-48 -111.333 -48 -178c0 -68 15.5 -125.833 46.5 -173.5s72.333 -83.5 124 -107.5s107.5 -36 167.5 -36
c116 0 213.333 37 292 111zM643.002 295c-68.667 -66.667 -134.667 -100 -198 -100c-38.667 0 -68 11.667 -88 35c-20.667 24 -31 52.667 -31 86c0 38 12 71.667 36 101c24.667 29.333 57.667 44 99 44c26.667 0 51.167 -4.5 73.5 -13.5s58.5 -29.167 108.5 -60.5v-92z
M342.002 1481c-50 0 -89.499 -16.666 -118.499 -49.999s-43.5 -72 -43.5 -116c0 -43.333 13.833 -80.833 41.5 -112.5s66.5 -47.5 116.5 -47.5c49.333 0 87.666 16.333 114.999 49s41 71 41 115c0 45.333 -13.333 83.666 -40 114.999c-26 31.333 -63.333 47 -112 47z
M764.003 1479c-48.667 0 -87.167 -16.668 -115.5 -50.001s-42.5 -72 -42.5 -116c0 -45.333 13.833 -84.333 41.5 -117s66.5 -49 116.5 -49c49.333 0 88 16.333 116 49s42 71.667 42 117c0 44.667 -14 83.334 -42 116.001c-28 33.333 -66.667 50 -116 50z" />
    <glyph glyph-name="aring" unicode="&#xe5;" horiz-adv-x="1094" 
d="M647 101l0.00195312 -101h435v234h-135l-1 483c0 112 -37.833 197.333 -113.5 256s-185.834 88 -330.501 88c-82 0 -151.833 -8.5 -209.5 -25.5s-107.167 -44.5 -148.5 -82.5s-78 -88.667 -110 -152l245 -49c46.667 65.333 108 98 184 98c50.667 0 94 -16.667 130 -50
c36.667 -33.333 55 -79.333 55 -138l-1 -68c-66.667 24 -115.334 39.167 -146.001 45.5s-65.667 9.5 -105 9.5c-73.333 0 -138.833 -14.333 -196.5 -43s-102.5 -69 -134.5 -121s-48 -111.333 -48 -178c0 -68 15.5 -125.833 46.5 -173.5s72.333 -83.5 124 -107.5
s107.5 -36 167.5 -36c116 0 213.333 37 292 111zM644.002 295c-69.333 -66.667 -135.667 -100 -199 -100c-38.667 0 -68 11.667 -88 35c-20.667 24 -31 52.667 -31 86c0 38 12 71.667 36 101c24.667 29.333 57.667 44 99 44c26.667 0 51.167 -4.5 73.5 -13.5
s58.833 -29.167 109.5 -60.5v-92zM576.001 1522c-64.667 0 -115.667 -22.333 -153 -67s-56 -96.667 -56 -156c0 -62 18.5 -115.167 55.5 -159.5s88.167 -66.5 153.5 -66.5c45.333 0 84 10.5 116 31.5s56.333 48.5 73 82.5c16 34.667 24 72 24 112c0 38 -8 74.167 -24 108.5
s-40.333 61.833 -73 82.5c-32 21.333 -70.667 32 -116 32zM576.001 1391c30 0 53 -8.99902 69 -26.999c15.333 -17.333 23 -38.333 23 -63c0 -26.667 -8.66699 -50 -26 -70c-16.667 -20.667 -40 -31 -70 -31c-26.667 0 -47.667 9.33301 -63 28s-23 41 -23 67
c0 25.333 8 47.666 24 66.999c16.667 19.333 38.667 29 66 29z" />
    <glyph glyph-name="ae" unicode="&#xe6;" horiz-adv-x="1639" 
d="M746 146c35.333 -35.333 75.9971 -65.665 121.997 -90.998c46 -24.667 95.333 -44 148 -58c52.667 -13.333 104.667 -20 156 -20c100 0 190.667 24.333 272 73c81.333 47.333 140.333 118 177 212l-238 74c-34.667 -47.333 -67.667 -79.666 -99 -96.999
c-30.667 -18 -70.667 -27 -120 -27c-70 0 -125.333 23 -166 69s-63 110.667 -67 194h702c-2 76 -7.16699 136.667 -15.5 182s-23.833 89.333 -46.5 132c-25.333 59.333 -60.333 109.666 -105 150.999c-44 42 -93.833 73.333 -149.5 94s-113.5 31 -173.5 31
c-118.667 0 -225 -36.667 -319 -110c-46 36 -102.333 64 -169 84c-66 20 -134.667 30 -206 30c-100 0 -189.833 -20.833 -269.5 -62.5s-135.167 -104.167 -166.5 -187.5l241 -63c30 41.333 57 69 81 83s57.667 21 101 21c132.667 0 199 -91.333 199 -274
c-70 52 -151.333 78 -244 78c-66.667 0 -129.667 -14.333 -189 -43c-59.333 -28 -107.166 -68.833 -143.499 -122.5s-54.5 -115.834 -54.5 -186.501c0 -49.333 8.33301 -94.666 25 -135.999c16.667 -40.667 40.834 -75.834 72.501 -105.501s69.334 -52.334 113.001 -68.001
s91.167 -23.5 142.5 -23.5c46 0 87.5 5 124.5 15s75.667 26.667 116 50s89.833 57.333 148.5 102zM630.997 287.001c-36.667 -35.333 -68.499 -60.167 -95.499 -74.5s-55.833 -21.5 -86.5 -21.5c-44 0 -77.833 13.333 -101.5 40s-35.5 58.334 -35.5 95.001
c0 38.667 12.333 72.667 37 102c25.333 28.667 60 43 104 43c27.333 0 53.666 -5.83301 78.999 -17.5s58.333 -33.834 99 -66.501v-100zM938.998 649c4 65.333 22.333 115.667 55 151c33.333 34.667 79 52 137 52c109.333 0 170.333 -67.667 183 -203h-375z" />
    <glyph glyph-name="ccedilla" unicode="&#xe7;" 
d="M441 -4l-71.999 -173.999l27 -17c20 6.66699 41 10 63 10c39.333 0 73.333 -7.66699 102 -23c29.333 -16 44 -39.667 44 -71c0 -20.667 -9.33301 -37.334 -28 -50.001s-42.334 -19 -71.001 -19c-26.667 0 -51 4 -73 12s-61.667 28.333 -119 61l-90 -69
c92 -98.667 201.667 -148 329 -148c44.667 0 86.334 9.83301 125.001 29.5s69.334 46 92.001 79s34 67.833 34 104.5c0 62 -22.667 108.667 -68 140c-44.667 31.333 -98 47 -160 47l33 75c224 17.333 370 131 438 341l-252 112
c-30.667 -67.333 -63.334 -115.166 -98.001 -143.499s-79.334 -42.5 -134.001 -42.5c-69.333 0 -123.333 25.833 -162 77.5s-58 113.167 -58 184.5c0 48.667 9 94.667 27 138c18 44 45 79.333 81 106c36 27.333 79 41 129 41c56.667 0 103.334 -14.167 140.001 -42.5
s67 -72.166 91 -131.499h218l-1 432h-221v-84c-50 36 -95.333 60.667 -136 74s-90.334 20 -149.001 20c-96 0 -183 -22.833 -261 -68.5s-138.833 -108.834 -182.5 -189.501s-65.5 -171.334 -65.5 -272.001c0 -66.667 10 -130.167 30 -190.5s48.5 -114 85.5 -161
s82.167 -86.5 135.5 -118.5s112.333 -55 177 -69z" />
    <glyph glyph-name="egrave" unicode="&#xe8;" 
d="M1020 258l-259.999 83c-30.667 -49.333 -61.667 -83.666 -93 -102.999c-31.333 -20.667 -70.666 -31 -117.999 -31c-40.667 0 -77.334 9.66699 -110.001 29c-32.667 20 -59.334 48.333 -80.001 85c-20.667 37.333 -34.667 81.333 -42 132h711v62
c0 84.667 -11.667 161.167 -35 229.5s-56.666 126.666 -99.999 174.999s-95.5 85.333 -156.5 111s-128.167 38.5 -201.5 38.5c-100 0 -189.333 -23.833 -268 -71.5s-140.167 -114.167 -184.5 -199.5s-66.5 -182 -66.5 -290c0 -80.667 12.167 -154 36.5 -220
s59.5 -122.667 105.5 -170s101.667 -83.333 167 -108c64.667 -26 136 -39 214 -39c115.333 0 213.166 23.667 293.499 71s142.833 119.333 187.5 216zM325.001 635c4.66699 60.667 24.667 109.332 60 145.999c34 36.667 78.333 55 133 55s99 -18.167 133 -54.5
s54 -85.166 60 -146.499h-386zM215.001 1506l307 -338h195l-207 338h-295z" />
    <glyph glyph-name="eacute" unicode="&#xe9;" 
d="M1020 258l-259.999 83c-30.667 -49.333 -61.667 -83.666 -93 -102.999c-31.333 -20.667 -70.666 -31 -117.999 -31c-40.667 0 -77.334 9.66699 -110.001 29c-32.667 20 -59.334 48.333 -80.001 85c-20.667 37.333 -34.667 81.333 -42 132h711v62
c0 84.667 -11.667 161.167 -35 229.5s-56.666 126.666 -99.999 174.999s-95.5 85.333 -156.5 111s-128.167 38.5 -201.5 38.5c-100 0 -189.333 -23.833 -268 -71.5s-140.167 -114.167 -184.5 -199.5s-66.5 -182 -66.5 -290c0 -80.667 12.167 -154 36.5 -220
s59.5 -122.667 105.5 -170s101.667 -83.333 167 -108c64.667 -26 136 -39 214 -39c115.333 0 213.166 23.667 293.499 71s142.833 119.333 187.5 216zM325.001 635c4.66699 60.667 24.667 109.332 60 145.999c34 36.667 78.333 55 133 55s99 -18.167 133 -54.5
s54 -85.166 60 -146.499h-386zM352.001 1168h203l307 342h-286z" />
    <glyph glyph-name="ecircumflex" unicode="&#xea;" 
d="M1020 258l-259.999 83c-30.667 -49.333 -61.667 -83.666 -93 -102.999c-31.333 -20.667 -70.666 -31 -117.999 -31c-40.667 0 -77.334 9.66699 -110.001 29c-32.667 20 -59.334 48.333 -80.001 85c-20.667 37.333 -34.667 81.333 -42 132h711v62
c0 84.667 -11.667 161.167 -35 229.5s-56.666 126.666 -99.999 174.999s-95.5 85.333 -156.5 111s-128.167 38.5 -201.5 38.5c-100 0 -189.333 -23.833 -268 -71.5s-140.167 -114.167 -184.5 -199.5s-66.5 -182 -66.5 -290c0 -80.667 12.167 -154 36.5 -220
s59.5 -122.667 105.5 -170s101.667 -83.333 167 -108c64.667 -26 136 -39 214 -39c115.333 0 213.166 23.667 293.499 71s142.833 119.333 187.5 216zM325.001 635c4.66699 60.667 24.667 109.332 60 145.999c34 36.667 78.333 55 133 55s99 -18.167 133 -54.5
s54 -85.166 60 -146.499h-386zM215.001 1159h221l86 179l87 -179h215l-211 347h-185z" />
    <glyph glyph-name="edieresis" unicode="&#xeb;" 
d="M1020 258l-259.998 83c-30.667 -49.333 -61.667 -83.666 -93 -102.999c-31.333 -20.667 -70.666 -31 -117.999 -31c-40.667 0 -77.334 9.66699 -110.001 29c-32.667 20 -59.334 48.333 -80.001 85c-20.667 37.333 -34.334 81.333 -41.001 132h710v62
c0 84.667 -11.667 161.167 -35 229.5s-56.666 126.666 -99.999 174.999s-95.5 85.333 -156.5 111s-128.167 38.5 -201.5 38.5c-100 0 -189.333 -23.833 -268 -71.5s-140 -114.167 -184 -199.5s-66 -182 -66 -290c0 -80.667 12 -154 36 -220s59 -122.667 105 -170
s101.667 -83.333 167 -108c64.667 -26 136 -39 214 -39c115.333 0 213.166 23.667 293.499 71s142.833 119.333 187.5 216zM326.002 635c4.66699 60.667 24.167 109.332 58.5 145.999s78.833 55 133.5 55s99 -18.167 133 -54.5s54 -85.166 60 -146.499h-385zM314.002 1481
c-48 0 -86.332 -16.666 -114.999 -49.999s-43 -72 -43 -116c0 -42.667 13.333 -80 40 -112c27.333 -32 65 -48 113 -48c50 0 88.833 16.5 116.5 49.5s41.5 71.167 41.5 114.5c0 45.333 -13.333 83.666 -40 114.999s-64.334 47 -113.001 47zM738.003 1479
c-49.333 0 -88.5 -16.999 -117.5 -50.999s-43.5 -73 -43.5 -117s13.833 -82.333 41.5 -115s65.834 -49 114.501 -49c50 0 88.833 17 116.5 51s41.5 73.667 41.5 119c0 43.333 -13.333 81.166 -40 113.499s-64.334 48.5 -113.001 48.5z" />
    <glyph glyph-name="igrave" unicode="&#xec;" horiz-adv-x="588" 
d="M0 807h152v-573h-148v-234h588v234h-137v809h-455v-236zM-8 1506l305 -338h197l-207 338h-295z" />
    <glyph glyph-name="iacute" unicode="&#xed;" horiz-adv-x="588" 
d="M0 807h152v-573h-148v-234h588v234h-137v809h-455v-236zM129 1168h205l305 342h-286z" />
    <glyph glyph-name="icircumflex" unicode="&#xee;" horiz-adv-x="588" 
d="M0 807h152v-573h-148v-234h588v234l-137 -1v809h-455v-235zM-8 1159h217l88 179l82 -179h221l-217 347h-182z" />
    <glyph glyph-name="idieresis" unicode="&#xef;" horiz-adv-x="588" 
d="M0 807h152v-573h-148v-234h588v234l-137 -1v809h-455v-235zM90 1481c-48 0 -85.666 -16.668 -112.999 -50.001s-41 -72 -41 -116c0 -42.667 13.167 -80 39.5 -112s63.166 -48 110.499 -48c48.667 0 86.667 16.333 114 49c28 32.667 42 71 42 115
c0 44.667 -13.5 82.834 -40.5 114.501s-64.167 47.5 -111.5 47.5zM514.001 1479c-50 0 -89.332 -17 -117.999 -51s-43 -73 -43 -117s14 -82.333 42 -115s66.333 -49 115 -49c49.333 0 87.666 16.833 114.999 50.5s41 73.5 41 119.5c0 44 -13.333 82 -40 114s-64 48 -112 48z
" />
    <glyph glyph-name="ntilde" unicode="&#xf1;" horiz-adv-x="1180" 
d="M13 0l0.000976562 234h136v573h-136v236h452v-117c93.333 87.333 190.333 131 291 131c85.333 0 152.666 -27.5 201.999 -82.5s74 -131.833 74 -230.5v-510h140v-234h-443v654c0 81.333 -33.333 122 -100 122c-56 0 -110.667 -23 -164 -69v-473h139v-234h-591z
M168.001 1319c88.667 83.333 175.999 125 261.999 125c42.667 0 88.667 -11.667 138 -35c52 -17.333 93.333 -26 124 -26c48.667 0 99.334 22.333 152.001 67l113 -162c-61.333 -66.667 -142 -100 -242 -100c-43.333 0 -91 5.33301 -143 16c-68.667 19.333 -109 29 -121 29
c-49.333 0 -104 -21.667 -164 -65z" />
    <glyph glyph-name="ograve" unicode="&#xf2;" 
d="M522 1065c-95.333 0 -182.167 -24 -260.5 -72s-140.166 -114 -185.499 -198s-68 -177.667 -68 -281c0 -102 21.667 -193.667 65 -275s103.833 -145 181.5 -191s165.5 -69 263.5 -69c96.667 0 184.667 23.833 264 71.5s141.666 113.334 186.999 197.001
s68 176.834 68 279.501c0 99.333 -22.667 190.166 -68 272.499s-107.333 147.166 -186 194.499s-165.667 71 -261 71zM521.999 811c62 0 109.334 -26 142.001 -78s49 -127 49 -225c0 -182.667 -62 -274 -186 -274c-131.333 0 -197 99 -197 297c0 88 16.667 156.667 50 206
s80.666 74 141.999 74zM215 1506l307 -338h195l-207 338h-295z" />
    <glyph glyph-name="oacute" unicode="&#xf3;" 
d="M522 1065c-95.333 0 -182.167 -24 -260.5 -72s-140.166 -114 -185.499 -198s-68 -177.667 -68 -281c0 -102 21.667 -193.667 65 -275s103.833 -145 181.5 -191s165.5 -69 263.5 -69c96.667 0 184.667 23.833 264 71.5s141.666 113.334 186.999 197.001
s68 176.834 68 279.501c0 99.333 -22.667 190.166 -68 272.499s-107.333 147.166 -186 194.499s-165.667 71 -261 71zM521.999 811c62 0 109.334 -26 142.001 -78s49 -127 49 -225c0 -182.667 -62 -274 -186 -274c-131.333 0 -197 99 -197 297c0 88 16.667 156.667 50 206
s80.666 74 141.999 74zM353 1168h202l307 342h-286z" />
    <glyph glyph-name="ocircumflex" unicode="&#xf4;" 
d="M522 1065c-95.333 0 -182.167 -24 -260.5 -72s-140.166 -114 -185.499 -198s-68 -177.667 -68 -281c0 -102 21.667 -193.667 65 -275s103.833 -145 181.5 -191s165.5 -69 263.5 -69c96.667 0 184.667 23.833 264 71.5s141.666 113.334 186.999 197.001
s68 176.834 68 279.501c0 99.333 -22.667 190.166 -68 272.499s-107.333 147.166 -186 194.499s-165.667 71 -261 71zM521.999 811c62 0 109.334 -26 142.001 -78s49 -127 49 -225c0 -182.667 -62 -274 -186 -274c-131.333 0 -197 99 -197 297c0 88 16.667 156.667 50 206
s80.666 74 141.999 74zM215 1159h221l86 179l87 -179h215l-211 347h-185z" />
    <glyph glyph-name="otilde" unicode="&#xf5;" 
d="M522 1065c-95.333 0 -182.167 -24 -260.5 -72s-140.166 -114 -185.499 -198s-68 -177.667 -68 -281c0 -102 21.667 -193.667 65 -275s103.833 -145 181.5 -191s165.5 -69 263.5 -69c96.667 0 184.667 23.833 264 71.5s141.666 113.334 186.999 197.001
s68 176.834 68 279.501c0 99.333 -22.667 190.166 -68 272.499s-107.333 147.166 -186 194.499s-165.667 71 -261 71zM521.999 811c62 0 109.334 -26 142.001 -78s49 -127 49 -225c0 -182.667 -62 -274 -186 -274c-131.333 0 -197 99 -197 297c0 88 16.667 156.667 50 206
s80.666 74 141.999 74zM103 1319l108 -151l12 8c61.333 38 113.333 57 156 57c19.333 0 37 -2.66699 53 -8l70 -21c50 -10.667 97 -16 141 -16c100.667 0 180 33.333 238 100l-109 162c-56.667 -44.667 -107.667 -67 -153 -67c-32.667 0 -71.667 8.66699 -117 26
c-51.333 23.333 -98.333 35 -141 35c-90.667 0 -176.667 -41.667 -258 -125z" />
    <glyph glyph-name="odieresis" unicode="&#xf6;" 
d="M522 1065c-95.333 0 -182.167 -24 -260.5 -72s-140.166 -114 -185.499 -198s-68 -177.667 -68 -281c0 -102 21.667 -193.667 65 -275s103.833 -145 181.5 -191s165.5 -69 263.5 -69c96.667 0 184.667 23.833 264 71.5s141.666 113.334 186.999 197.001
s68 176.834 68 279.501c0 99.333 -22.667 190.166 -68 272.499s-107.333 147.166 -186 194.499s-165.667 71 -261 71zM521.999 811c62 0 109.334 -26 142.001 -78s49 -127 49 -225c0 -182.667 -62 -274 -186 -274c-131.333 0 -197 99 -197 297c0 88 16.667 156.667 50 206
s80.666 74 141.999 74zM314 1481c-48 0 -86.332 -16.666 -114.999 -49.999s-43 -72 -43 -116c0 -42.667 13.333 -80 40 -112c27.333 -32 65 -48 113 -48c50 0 89 16.5 117 49.5s42 71.167 42 114.5c0 45.333 -13.667 83.666 -41 114.999
c-26.667 31.333 -64.334 47 -113.001 47zM738.001 1479c-49.333 0 -88.332 -16.999 -116.999 -50.999s-43 -73 -43 -117s13.667 -82.333 41 -115s65.333 -49 114 -49c50 0 88.833 17 116.5 51s41.5 73.667 41.5 119c0 43.333 -13.333 81.166 -40 113.499
s-64.334 48.5 -113.001 48.5z" />
    <glyph glyph-name="oslash" unicode="&#xf8;" 
d="M918 1065l-86 -102.002c-94 68 -195.667 102 -305 102c-75.333 0 -145.333 -15.667 -210 -47c-64 -32 -119.667 -75.667 -167 -131s-83.5 -117.166 -108.5 -185.499s-37.5 -137.5 -37.5 -207.5c0 -138 44.333 -254 133 -348l-90 -105l80 -66l84 97
c89.333 -62 191.666 -93 306.999 -93c100.667 0 190.334 26.167 269.001 78.5s139.167 121.333 181.5 207s63.5 175.167 63.5 268.5c0 134.667 -42.333 253.334 -127 356.001l91 109zM346 390.998c-9.33301 52.667 -14 104 -14 154c0 177.333 63.333 266 190 266
c56 0 99.333 -21 130 -63zM391 290.998l312 358c6.66699 -44.667 10 -91 10 -139c0 -184 -62 -276 -186 -276c-32 0 -57.5 4 -76.5 12s-38.833 23 -59.5 45z" />
    <glyph glyph-name="ugrave" unicode="&#xf9;" horiz-adv-x="1180" 
d="M13 807h139v-487c0 -109.333 23.833 -192.833 71.5 -250.5s117.167 -86.5 208.5 -86.5c96.667 0 190.334 42.667 281.001 128v-111h459v234h-140v809h-456v-236h137v-471c-50.667 -49.333 -103.334 -74 -158.001 -74c-37.333 0 -64.333 13.167 -81 39.5
s-25 69.833 -25 130.5v611h-436v-236zM287 1506l305 -338h197l-209 338h-293z" />
    <glyph glyph-name="uacute" unicode="&#xfa;" horiz-adv-x="1180" 
d="M13 807h139v-487c0 -109.333 23.833 -192.833 71.5 -250.5s117.167 -86.5 208.5 -86.5c96.667 0 190.334 42.667 281.001 128v-111h459v234h-140v809h-456v-236h137v-471c-50.667 -49.333 -103.334 -74 -158.001 -74c-37.333 0 -64.333 13.167 -81 39.5
s-25 69.833 -25 130.5v611h-436v-236zM428 1168h201l305 342h-287z" />
    <glyph glyph-name="ucircumflex" unicode="&#xfb;" horiz-adv-x="1180" 
d="M13 807h139v-487c0 -109.333 23.833 -192.833 71.5 -250.5s117.167 -86.5 208.5 -86.5c96.667 0 190.334 42.667 281.001 128v-111h459v234l-140 -1v809h-456v-235h137v-471c-50.667 -49.333 -103.334 -74 -158.001 -74c-37.333 0 -64.333 13.167 -81 39.5
s-25 69.833 -25 130.5v610h-436v-235zM287 1159h219l86 179l86 -179h215l-211 347h-184z" />
    <glyph glyph-name="udieresis" unicode="&#xfc;" horiz-adv-x="1180" 
d="M13 807h139v-487c0 -109.333 23.833 -192.833 71.5 -250.5s117.167 -86.5 208.5 -86.5c96.667 0 190.334 42.667 281.001 128v-111h459v234l-140 -1v809h-456v-235h137v-471c-50.667 -49.333 -103.334 -74 -158.001 -74c-37.333 0 -64.333 13.167 -81 39.5
s-25 69.833 -25 130.5v610h-436v-235zM383 1481c-48.667 0 -87.002 -16.668 -115.002 -50.001s-42 -72 -42 -116c0 -43.333 13.333 -80.833 40 -112.5s64.334 -47.5 113.001 -47.5c49.333 0 88.333 16.5 117 49.5s43 71.167 43 114.5c0 44.667 -13.667 82.834 -41 114.501
s-65.666 47.5 -114.999 47.5zM806.998 1479c-48.667 0 -86.667 -16.668 -114 -50.001s-41 -72 -41 -116c0 -44.667 13.5 -83.5 40.5 -116.5s65.167 -49.5 114.5 -49.5c50.667 0 89.667 16.167 117 48.5s41 71.5 41 117.5c0 44.667 -14 83.334 -42 116.001
c-28 33.333 -66.667 50 -116 50z" />
    <glyph glyph-name="yacute" unicode="&#xfd;" horiz-adv-x="1133" 
d="M0 807h123l346 -799l-78 -191h-211v-233h373l76 190l383 1033h129v236h-476v-236h111l-172 -471l-159 471h100v236h-545v-236zM400 1168h209l301 342h-281z" />
    <glyph glyph-name="ydieresis" unicode="&#xff;" horiz-adv-x="1133" 
d="M0 807h123l346 -799l-78 -191h-211v-233h373l75 190l384 1033h129v235h-476v-235h111l-172 -471l-159 471h100v235h-545v-235zM361 1481c-49.333 0 -87.667 -16.668 -115 -50.001s-41 -72 -41 -116c0 -43.333 13.167 -80.833 39.5 -112.5s63.833 -47.5 112.5 -47.5
s87 16.333 115 49s42 71 42 115c0 44.667 -13.5 82.834 -40.5 114.501s-64.5 47.5 -112.5 47.5zM788.999 1479c-50 0 -89 -17 -117 -51c-29.333 -34 -44 -73 -44 -117s13.833 -82.333 41.5 -115s66.167 -49 115.5 -49c50 0 88.667 16.5 116 49.5s41 72.5 41 118.5
c0 44 -13.5 82.333 -40.5 115s-64.5 49 -112.5 49z" />
    <glyph glyph-name="OE" unicode="&#x152;" horiz-adv-x="1954" 
d="M1954 0l-0.000976562 479.001h-272v-238h-408v400h347l-1 235h-346v367h404v-238l272 1v469h-987c-30.667 0 -77 2.33301 -139 7s-110.667 7 -146 7c-100 0 -191 -17.333 -273 -52s-153 -85 -213 -151c-59.333 -66 -104.833 -144.667 -136.5 -236
s-47.5 -193.333 -47.5 -306c0 -126.667 16.333 -236.834 49 -330.501s83.334 -173.5 152.001 -239.5c70 -70.667 147.333 -118 232 -142s183.667 -36 297 -36c24 0 61.333 0.666992 112 2c50 1.33301 87.667 2 113 2h991zM917.999 241.001
c-74 -4.66699 -118.333 -6.99902 -133 -6.99902c-80 0 -149.333 20.667 -208 62s-103.667 101 -135 179c-30.667 77.333 -46 169.666 -46 276.999c0 102 15 190.5 45 265.5s73.333 132 130 171s123.667 58.5 201 58.5c23.333 0 72 -2.66699 146 -8v-998z" />
    <glyph glyph-name="oe" unicode="&#x153;" horiz-adv-x="1725" 
d="M858 103c54 -38.667 114.332 -68.335 180.999 -89.002c67.333 -22 134 -33 200 -33c102.667 0 196.334 24.5 281.001 73.5s148 121.167 190 216.5l-247 77c-32 -46 -64.5 -79.5 -97.5 -100.5s-72.5 -31.5 -118.5 -31.5c-43.333 0 -81.833 9.83301 -115.5 29.5
s-60.334 47.834 -80.001 84.501s-31.5 80.334 -35.5 131.001h709v61c0 84.667 -11.333 161.334 -34 230.001s-56 127.667 -100 177c-43.333 48.667 -95.666 85.667 -156.999 111c-60.667 24.667 -129.667 37 -207 37c-73.333 0 -133.833 -9.33301 -181.5 -28
s-107.167 -57 -178.5 -115c-50 38 -92.167 66.5 -126.5 85.5s-67.666 32 -99.999 39s-71.833 10.5 -118.5 10.5c-98 0 -186.667 -23.667 -266 -71c-78.667 -48 -140.334 -113.833 -185.001 -197.5s-67 -177.834 -67 -282.501c0 -101.333 21.667 -193 65 -275
c42.667 -81.333 102.167 -145 178.5 -191s162.5 -69 258.5 -69c63.333 0 123.333 9.5 180 28.5s114 49.5 172 91.5zM513.999 818.999c60.667 0 108.667 -26.667 144 -80s53 -127 53 -221c0 -90 -17.167 -159.333 -51.5 -208s-82.833 -73 -145.5 -73
c-125.333 0 -188 93.667 -188 281c0 93.333 16.5 166.833 49.5 220.5s79.167 80.5 138.5 80.5zM1020 640.999c6 63.333 26.833 113 62.5 149s81.167 54 136.5 54c54 0 97.833 -18 131.5 -54s52.5 -85.667 56.5 -149h-387z" />
    <glyph glyph-name="circumflex" unicode="&#x2c6;" horiz-adv-x="223" 
d="M-305 1159h219l86 179l86 -179h215l-211 347h-184z" />
    <glyph glyph-name="tilde" unicode="&#x2dc;" horiz-adv-x="223" 
d="M-424 1319l118.998 -151l12 8c53.333 38 103 57 149 57c18.667 0 35.334 -2.66699 50.001 -8l77 -21c47.333 -12 94.666 -18 141.999 -18c100 0 178.667 34 236 102l-113 162c-55.333 -43.333 -105.666 -65 -150.999 -65c-31.333 0 -70.666 8 -117.999 24
c-46 22 -92.333 33 -139 33c-91.333 0 -179.333 -41 -264 -123z" />
    <glyph glyph-name="emdash" unicode="&#x2013;" horiz-adv-x="1133" 
d="M8 408h95h1024v282h-90h-1029v-282z" />
    <glyph glyph-name="endash" unicode="&#x2014;" horiz-adv-x="1133" 
d="M8 408h95h1024v282h-90h-1029v-282z" />
    <glyph glyph-name="quoteleft" unicode="&#x2018;" horiz-adv-x="361" 
d="M12 772h338.001v361h-149c0 77.333 9.33301 128.333 28 153c19.333 24.667 59.666 39 120.999 43v160c-115.333 -4 -200.5 -33.333 -255.5 -88s-82.5 -138 -82.5 -250v-379z" />
    <glyph glyph-name="quoteright" unicode="&#x2019;" horiz-adv-x="361" 
d="M12 776h31c107.333 0 185.333 30.167 234 90.5s73 156.5 73 288.5v334h-338v-360h152c0 -62 -11 -109.333 -33 -142s-61.667 -53 -119 -61v-150z" />
    <glyph glyph-name="quotedblleft" unicode="&#x201c;" horiz-adv-x="772" 
d="M21 772l336.001 -0.000976562v361h-152c0 50.667 4.16699 89 12.5 115s23.166 44.833 44.499 56.5s53 19.834 95 24.501v160c-72 -2 -122.167 -7.16699 -150.5 -15.5s-54.5 -25.5 -78.5 -51.5c-71.333 -56 -107 -155 -107 -297v-353zM416.001 771.999l333.998 0.00195312
v361h-150c3.33301 55.333 8.66602 94.666 15.999 117.999c7.33301 24 20.333 41 39 51c18.667 10.667 50.334 19.667 95.001 27v160c-71.333 -4 -122.666 -10.5 -153.999 -19.5s-58.666 -26.5 -81.999 -52.5c-65.333 -62.667 -98 -166.334 -98 -311.001v-334z" />
    <glyph glyph-name="quotedblright" unicode="&#x201d;" horiz-adv-x="772" 
d="M17 772c88 8.66699 150.668 20.667 188.001 36c38 15.333 70 42.333 96 81c37.333 57.333 56 157 56 299v297h-332v-352h143c5.33301 -14.667 8 -29.667 8 -45c0 -41.333 -15.833 -77.333 -47.5 -108s-68.834 -50 -111.501 -58v-150zM416.001 781h54
c102 0 174.167 38.333 216.5 115s63.5 170 63.5 280v309h-334v-352h152c-2 -74 -13 -124.167 -33 -150.5s-59.667 -42.5 -119 -48.5v-153z" />
    <glyph glyph-name="quotedblbase" unicode="&#x201e;" horiz-adv-x="772" 
d="M17 -357c70 2 121.5 8 154.5 18s66.167 28.667 99.5 56c32 35.333 54.333 77 67 125s19 115 19 201v310h-332v-353h143c0 -132 -50.333 -199.667 -151 -203v-154zM416 -353l54 -0.000976562c102 0 174.167 38.833 216.5 116.5s63.5 170.834 63.5 279.501v310h-334v-353
h152c-3.33301 -53.333 -8.83301 -92.5 -16.5 -117.5s-21.5 -43.5 -41.5 -55.5c-20 -11.333 -51.333 -20 -94 -26v-154z" />
    <glyph glyph-name="dagger" unicode="&#x2020;" horiz-adv-x="996" 
d="M12 877l210.995 0.00195312c52.667 21.333 90.334 35.333 113.001 42c23.333 6.66699 54 11.667 92 15c-8.66699 -60.667 -23.667 -117.334 -45 -170.001l-19 -45v-248c26.667 -187.333 45 -330.333 55 -429c8.66699 -99.333 16 -232.333 22 -399h127
c1.33301 89.333 5.33301 174 12 254s16.334 175.333 29.001 286c12 111.333 22 207.333 30 288v248l-43 97c-5.33301 13.333 -9.66602 28 -12.999 44s-5.66602 40.667 -6.99902 74c31.333 -3.33301 58.333 -8.33301 81 -15s61 -20.667 115 -42h211v237h-211
c-42.667 -22.667 -75 -37.334 -97 -44.001s-55 -11.667 -99 -15c6.66699 44 13.334 76.5 20.001 97.5s21 55.5 43 103.5v319h-275v-319l13 -25c18 -34.667 30.5 -63 37.5 -85s11.5 -52.333 13.5 -91c-46 0 -80.333 3.16699 -103 9.5s-56.667 22.833 -102 49.5h-211v-237z
" />
    <glyph glyph-name="perthousand" unicode="&#x2030;" horiz-adv-x="1678" 
d="M266 1514c-79.333 0 -142.668 -35.334 -190.001 -106.001c-48 -70 -72 -164.333 -72 -283c0 -134 22 -236.667 66 -308c43.333 -70.667 106 -106 188 -106c84.667 0 151.334 36.333 200.001 109s73 171.334 73 296.001c0 126 -23 223.833 -69 293.5
s-111.333 104.5 -196 104.5zM126.998 -4.00098l101 -56l254 521l505 1032l-116 56l-246 -519zM270.998 1358c47.333 0 71 -79 71 -237c0 -79.333 -6.66699 -141.333 -20 -186c-13.333 -44 -32 -66 -56 -66c-43.333 0 -65 75 -65 225c0 176 23.333 264 70 264z
M839.998 767.999c-54.667 0 -102.667 -16.834 -144 -50.501s-73 -81.167 -95 -142.5s-33 -132.666 -33 -213.999c0 -129.333 21.667 -227.333 65 -294c44 -66.667 107.667 -100 191 -100c159.333 0 249.333 128.667 270 386c0 133.333 -22.667 235.833 -68 307.5
s-107.333 107.5 -186 107.5zM835.998 614.998c43.333 0 64.999 -83.333 64.999 -250c0 -76 -6.16699 -136 -18.5 -180s-29.166 -66 -50.499 -66c-45.333 0 -68 73.667 -68 221c0 183.333 24 275 72 275zM1403 767.998c-53.333 0 -100.333 -16.6689 -141 -50.002
c-40 -34 -71 -82.333 -93 -145c-21.333 -63.333 -32 -136.666 -32 -219.999c0 -126 22.333 -221.833 67 -287.5s109.667 -98.5 195 -98.5c88 0 155.667 33 203 99s71 161.667 71 287c0 84 -11.167 157.333 -33.5 220s-53.833 110.834 -94.5 144.501s-88 50.5 -142 50.5z
M1403 614.996c48.667 0 73 -83.334 73 -250.001c0 -87.333 -5.33301 -150.166 -16 -188.499s-29.667 -57.5 -57 -57.5c-26.667 0 -45 16.333 -55 49s-15 95.667 -15 189c0 172 23.333 258 70 258z" />
    <glyph glyph-name="guilsinglleft" unicode="&#x2039;" horiz-adv-x="635" 
d="M-17 547l367 -500h297l-350 488l350 516h-297z" />
    <glyph glyph-name="guilsinglright" unicode="&#x203a;" horiz-adv-x="635" 
d="M-16 43h279l389 504l-386 496h-274l351 -508z" />
    <glyph glyph-name=".null" horiz-adv-x="0" 
 />
    <glyph glyph-name="nonmarkingreturn" horiz-adv-x="0" 
 />
    </font>
</defs>
</svg>
